<svg width="80" height="62" viewBox="0 0 80 62" fill="none" xmlns="http://www.w3.org/2000/svg">
<path fill-rule="evenodd" clip-rule="evenodd" d="M41.18 52.9512C42.35 52.9513 43.4718 53.4159 44.2992 54.2432C45.1265 55.0705 45.592 56.1923 45.5921 57.3623C45.5921 58.2348 45.3327 59.088 44.848 59.8135C44.3633 60.5389 43.6745 61.1045 42.8685 61.4385C42.0623 61.7724 41.1745 61.8597 40.3187 61.6895C39.463 61.5192 38.6768 61.0994 38.0599 60.4824C37.443 59.8655 37.0231 59.0794 36.8529 58.2236C36.6827 57.3679 36.77 56.4809 37.1038 55.6748C37.4378 54.8686 38.0033 54.1791 38.7288 53.6943C39.4543 53.2096 40.3075 52.9512 41.18 52.9512ZM41.18 35.3027C47.086 35.3028 52.84 37.1734 57.6175 40.6455C57.9299 40.8729 58.1952 41.1596 58.3968 41.4893C58.5982 41.8188 58.7323 42.1849 58.7923 42.5664C58.8524 42.9481 58.837 43.3382 58.7464 43.7139C58.6558 44.0893 58.4923 44.4436 58.265 44.7559C58.0376 45.0682 57.7508 45.3326 57.4212 45.5342C57.0917 45.7357 56.7257 45.8706 56.3441 45.9307C55.9624 45.9907 55.5722 45.9753 55.1966 45.8848C54.821 45.7942 54.467 45.6298 54.1546 45.4023C50.3843 42.6603 45.842 41.1837 41.18 41.1836C36.5179 41.1836 31.9749 42.6602 28.2044 45.4023C27.5737 45.8615 26.7867 46.0519 26.016 45.9307C25.2451 45.8093 24.5534 45.3867 24.0941 44.7559C23.6348 44.125 23.4454 43.3372 23.5667 42.5664C23.6881 41.7956 24.1107 41.1048 24.7415 40.6455C29.5192 37.1733 35.2739 35.3027 41.18 35.3027ZM41.18 17.6406C42.2241 17.6406 43.2793 17.6772 44.3197 17.7471C44.7059 17.7732 45.0832 17.875 45.43 18.0469C45.7769 18.2188 46.0865 18.4575 46.3412 18.749C46.5958 19.0406 46.7907 19.3793 46.9144 19.7461C47.0381 20.1129 47.0879 20.5005 47.0619 20.8867C47.0358 21.2729 46.9339 21.6502 46.7621 21.9971C46.5902 22.3438 46.3522 22.6536 46.0609 22.9082C45.7693 23.1629 45.4297 23.3577 45.0628 23.4814C44.6961 23.6051 44.3084 23.656 43.9222 23.6299C43.0179 23.5674 42.0916 23.5381 41.18 23.5381C32.2344 23.5026 23.544 26.5209 16.5462 32.0938C16.0245 32.5098 15.3756 32.7341 14.7083 32.7295C14.0967 32.7319 13.499 32.5433 12.9994 32.1904C12.4999 31.8376 12.1225 31.3379 11.9203 30.7607C11.718 30.1835 11.7013 29.5572 11.8714 28.9697C12.0416 28.3824 12.3902 27.8622 12.8695 27.4824C20.9092 21.0722 30.8976 17.6003 41.18 17.6406ZM76.4749 0.00585938C76.8614 0.00585938 77.2448 0.0815957 77.6019 0.229492C77.9589 0.377387 78.2828 0.594937 78.556 0.868164C78.8292 1.14142 79.0468 1.46525 79.1947 1.82227C79.3425 2.17919 79.4182 2.56191 79.4183 2.94824C79.4183 3.33471 79.3426 3.71814 79.1947 4.0752C79.0468 4.43219 78.8292 4.75605 78.556 5.0293L71.8099 11.7725L78.556 18.5156C78.8293 18.7889 79.0468 19.1136 79.1947 19.4707C79.3424 19.8276 79.4183 20.2104 79.4183 20.5967C79.4183 20.983 79.3425 21.3657 79.1947 21.7227C79.0468 22.0797 78.8293 22.4045 78.556 22.6777C78.2828 22.9508 77.9587 23.1676 77.6019 23.3154C77.2448 23.4633 76.8614 23.5391 76.4749 23.5391C76.0886 23.539 75.7059 23.4633 75.349 23.3154C74.9921 23.1676 74.668 22.9508 74.3949 22.6777L67.6517 15.9307L60.9085 22.6777C60.3566 23.2296 59.6079 23.5391 58.8275 23.5391C58.047 23.539 57.2983 23.2296 56.7464 22.6777C56.1946 22.1259 55.8842 21.3771 55.8841 20.5967C55.8841 19.8162 56.1946 19.0675 56.7464 18.5156L63.4935 11.7725L56.7464 5.0293C56.4733 4.75615 56.2566 4.43202 56.1087 4.0752C55.9608 3.71814 55.8841 3.33471 55.8841 2.94824C55.8842 2.56191 55.9609 2.17919 56.1087 1.82227C56.2566 1.46542 56.4733 1.14133 56.7464 0.868164C57.2983 0.316269 58.047 0.0058741 58.8275 0.00585938C59.2138 0.00585938 59.5965 0.0816872 59.9535 0.229492C60.3105 0.377389 60.6353 0.594887 60.9085 0.868164L67.6517 7.61426L74.3949 0.868164C74.6681 0.594904 74.9919 0.377387 75.349 0.229492C75.7059 0.0816478 76.0886 0.00591299 76.4749 0.00585938ZM41.18 0C42.202 4.98975e-06 43.2391 0.0254507 44.2611 0.0732422C44.6471 0.0916193 45.0257 0.185986 45.3753 0.350586C45.7252 0.515345 46.039 0.748096 46.2992 1.03418C46.5593 1.32028 46.7611 1.65468 46.8919 2.01855C47.0227 2.3823 47.0802 2.76819 47.0619 3.1543C47.0435 3.54055 46.9493 3.9197 46.7845 4.26953C46.6198 4.61928 46.3879 4.93326 46.1019 5.19336C45.8158 5.45349 45.4814 5.65528 45.1175 5.78613C44.7538 5.91691 44.3678 5.97433 43.9818 5.95605C43.0517 5.91194 42.1101 5.88965 41.18 5.88965C27.9194 5.89691 15.0697 10.4922 4.81088 18.8945C4.2078 19.3899 3.4323 19.625 2.65561 19.5488C2.27108 19.5111 1.8978 19.3978 1.55697 19.2158C1.21626 19.0339 0.914484 18.7867 0.669277 18.4883C0.424023 18.1897 0.239611 17.8453 0.127285 17.4756C0.0149703 17.1059 -0.0237055 16.7176 0.0140034 16.333C0.0517193 15.9485 0.16506 15.5752 0.347011 15.2344C0.529043 14.8935 0.776902 14.592 1.07553 14.3467C12.388 5.08042 26.5569 0.0113497 41.18 0Z" fill="#82FB8E"/>
</svg>
