<svg width="79" height="102" viewBox="0 0 79 102" fill="none" xmlns="http://www.w3.org/2000/svg">
<path fill-rule="evenodd" clip-rule="evenodd" d="M56.8834 94.7011C57.8263 94.7011 58.7304 95.0845 59.3971 95.7675C60.0638 96.4505 60.4381 97.3768 60.4381 98.3427C60.438 99.3085 60.0638 100.235 59.3971 100.918C58.7304 101.601 57.8262 101.984 56.8834 101.984H21.3316C20.3889 101.984 19.4847 101.601 18.818 100.918C18.1513 100.235 17.776 99.3085 17.776 98.3427C17.776 97.3768 18.1512 96.4505 18.818 95.7675C19.4847 95.0845 20.3888 94.7011 21.3316 94.7011H56.8834ZM38.1656 0.0116228C43.3798 -0.117047 48.5666 0.823707 53.4205 2.7792C58.2744 4.73474 62.6975 7.66548 66.4293 11.3983C70.161 15.1312 73.1261 19.5912 75.15 24.5155C77.1739 29.4399 78.216 34.7292 78.2144 40.0722C78.2298 46.1434 76.8913 52.1381 74.3004 57.5985C71.7096 63.0588 67.935 67.8406 63.2652 71.579C62.392 72.2646 61.6828 73.146 61.193 74.1552C60.7032 75.1641 60.4448 76.2745 60.4381 77.4013V80.1327C60.4381 82.0644 59.6894 83.9172 58.356 85.2831C57.0226 86.6491 55.2135 87.4169 53.3277 87.4169H24.8863C23.0007 87.4168 21.1924 86.649 19.859 85.2831C18.5256 83.9171 17.776 82.0644 17.776 80.1327V77.4013C17.7752 76.2878 17.5254 75.1893 17.0455 74.1903C16.5655 73.1913 15.8682 72.3185 15.0074 71.6386C10.35 67.9228 6.57908 63.1702 3.9791 57.7411C1.37909 52.3117 0.0184212 46.3471 0.000581048 40.2997C-0.114919 18.5986 17.0034 0.535145 38.1656 0.0116228ZM38.3346 7.29483C21.003 7.71364 7.01761 22.4957 7.11093 40.2499C7.12687 45.1964 8.24078 50.0743 10.3687 54.5146C12.4968 58.9549 15.5834 62.8417 19.3941 65.8798C21.1069 67.2438 22.4919 68.9913 23.4439 70.9882C24.3959 72.9852 24.8894 75.1789 24.8863 77.4013V80.1327H35.5523V59.789L22.3717 46.2909C21.7046 45.6076 21.3297 44.6802 21.3297 43.7138C21.3298 42.7475 21.7046 41.8209 22.3717 41.1376C23.0387 40.4544 23.9431 40.0703 24.8863 40.0702C25.8297 40.0702 26.7349 40.4542 27.4019 41.1376L39.107 53.1327L50.8131 41.1376C51.1433 40.7994 51.535 40.5307 51.9664 40.3476C52.3979 40.1645 52.8607 40.0703 53.3277 40.0702C53.7948 40.0702 54.2576 40.1645 54.6891 40.3476C55.1206 40.5307 55.513 40.7992 55.8434 41.1376C56.1736 41.4759 56.4361 41.8772 56.6148 42.3192C56.7936 42.7612 56.8853 43.2353 56.8853 43.7138C56.8853 44.1922 56.7935 44.6663 56.6148 45.1083C56.4361 45.5504 56.1737 45.9526 55.8434 46.2909L42.6627 59.789V80.1327H53.3277V77.4013C53.3317 75.1724 53.8331 72.9736 54.7935 70.9735C55.754 68.9734 57.1485 67.2249 58.8697 65.8612C62.692 62.8013 65.7816 58.8874 67.9019 54.4179C70.0223 49.9484 71.1173 45.0415 71.1041 40.0722C71.1053 35.7004 70.2523 31.3728 68.5963 27.3437C66.9402 23.3144 64.5141 19.6645 61.4605 16.6103C58.4071 13.5562 54.7876 11.1593 50.816 9.55947C46.8445 7.95973 42.6009 7.18924 38.3346 7.29483Z" fill="#82FB8E"/>
</svg>
