<svg width="73" height="44" viewBox="0 0 73 44" fill="none" xmlns="http://www.w3.org/2000/svg">
<path d="M70.4795 0C71.1241 0 71.7425 0.256139 72.1982 0.711914C72.654 1.16769 72.9102 1.7861 72.9102 2.43066V41.3154C72.9102 41.96 72.654 42.5784 72.1982 43.0342C71.7425 43.49 71.1241 43.7461 70.4795 43.7461H2.43066C1.7861 43.7461 1.16769 43.49 0.711914 43.0342C0.256138 42.5784 0 41.96 0 41.3154V2.43066C0 1.7861 0.256137 1.16769 0.711914 0.711914C1.16769 0.256137 1.7861 0 2.43066 0H70.4795ZM4.86035 38.8857H11.3525C10.0991 35.9707 7.77543 33.647 4.86035 32.3936V38.8857ZM16.5107 4.86035C15.6948 7.61999 14.2019 10.1321 12.167 12.167C10.1321 14.2019 7.61999 15.6948 4.86035 16.5107V27.2354C7.61999 28.0513 10.1321 29.5442 12.167 31.5791C14.2019 33.614 15.6948 36.1261 16.5107 38.8857H56.3994C57.2154 36.1261 58.7083 33.614 60.7432 31.5791C62.778 29.5442 65.2902 28.0513 68.0498 27.2354V16.5107C65.2902 15.6948 62.778 14.2019 60.7432 12.167C58.7083 10.1321 57.2154 7.61999 56.3994 4.86035H16.5107ZM68.0498 32.3936C65.1347 33.647 62.8111 35.9707 61.5576 38.8857H68.0498V32.3936ZM36.4551 9.72168C39.6779 9.72168 42.769 11.0014 45.0479 13.2803C47.3267 15.5592 48.6064 18.6502 48.6064 21.873C48.6064 24.2764 47.8938 26.6257 46.5586 28.624C45.2234 30.6223 43.3258 32.1799 41.1055 33.0996C38.885 34.0193 36.4412 34.2599 34.084 33.791C31.727 33.3221 29.5616 32.1652 27.8623 30.4658C26.163 28.7665 25.006 26.6012 24.5371 24.2441C24.0682 21.8869 24.3088 19.4431 25.2285 17.2227C26.1483 15.0023 27.7058 13.1047 29.7041 11.7695C31.7024 10.4343 34.0517 9.72168 36.4551 9.72168ZM39.2451 15.1367C37.9129 14.5849 36.4465 14.4404 35.0322 14.7217C33.618 15.003 32.3194 15.6982 31.2998 16.7178C30.2802 17.7374 29.5851 19.036 29.3037 20.4502C29.0224 21.8644 29.167 23.3309 29.7188 24.6631C30.2706 25.9953 31.2053 27.1344 32.4043 27.9355C33.6033 28.7367 35.0131 29.1641 36.4551 29.1641C38.3888 29.1641 40.243 28.3957 41.6104 27.0283C42.9777 25.661 43.7461 23.8067 43.7461 21.873C43.7461 20.431 43.3187 19.0213 42.5176 17.8223C41.7164 16.6233 40.5774 15.6886 39.2451 15.1367ZM4.86035 4.86035V11.3525C7.77543 10.0991 10.0991 7.77543 11.3525 4.86035H4.86035ZM61.5576 4.86035C62.8111 7.77543 65.1347 10.0991 68.0498 11.3525V4.86035H61.5576Z" fill="#1D5E5A" fill-opacity="0.41"/>
</svg>
