<svg width="33" height="33" viewBox="0 0 33 33" fill="none" xmlns="http://www.w3.org/2000/svg">
<path fill-rule="evenodd" clip-rule="evenodd" d="M16.198 0C20.4926 0.00453519 24.6104 1.71232 27.6472 4.74902C30.684 7.78583 32.3926 11.9035 32.3972 16.1982C32.3972 19.4019 31.4465 22.5335 29.6667 25.1973C27.8868 27.8611 25.357 29.938 22.3972 31.1641C19.4373 32.39 16.1799 32.71 13.0378 32.085C9.89577 31.4599 7.00914 29.9176 4.74385 27.6523C2.47856 25.387 0.936239 22.5005 0.311232 19.3584C-0.313788 16.2162 0.00708638 12.9589 1.23311 9.99902C2.45915 7.03931 4.53522 4.50932 7.19893 2.72949C9.86263 0.949699 12.9944 6.76756e-05 16.198 0ZM16.198 2.49121C12.6709 2.4913 9.27932 3.85051 6.7292 6.28711C4.17911 8.72369 2.66715 12.0499 2.50654 15.5732C2.34606 19.0967 3.54984 22.5467 5.86787 25.2051C8.18591 27.8634 11.4394 29.5259 14.9519 29.8467V19.9365H11.2146C10.8841 19.9365 10.5664 19.805 10.3327 19.5713C10.0992 19.3377 9.96849 19.0207 9.96846 18.6904C9.96846 18.3601 10.0993 18.0432 10.3327 17.8096C10.5664 17.5759 10.8841 17.4443 11.2146 17.4443H14.9519V13.7061C14.9519 12.3842 15.4772 11.1163 16.4118 10.1816C17.3465 9.24697 18.6144 8.72172 19.9362 8.72168H22.4284C22.7588 8.72168 23.0756 8.85334 23.3093 9.08691C23.5429 9.32052 23.6744 9.63741 23.6745 9.96777C23.6745 10.2982 23.543 10.6159 23.3093 10.8496C23.0756 11.0831 22.7587 11.2139 22.4284 11.2139H19.9362C19.2754 11.2139 18.6418 11.477 18.1745 11.9443C17.7072 12.4117 17.4441 13.0452 17.444 13.7061V17.4443H21.1823C21.5128 17.4443 21.8295 17.5759 22.0632 17.8096C22.2969 18.0432 22.4284 18.36 22.4284 18.6904C22.4284 19.0209 22.2968 19.3376 22.0632 19.5713C21.8295 19.8049 21.5127 19.9365 21.1823 19.9365H17.444V29.8467C20.9566 29.526 24.2109 27.8635 26.529 25.2051C28.847 22.5467 30.0508 19.0966 29.8903 15.5732C29.7297 12.0499 28.2168 8.72369 25.6667 6.28711C23.1165 3.85065 19.725 2.49121 16.198 2.49121Z" fill="#1D5E5A"/>
</svg>
