<svg width="76" height="76" viewBox="0 0 76 76" fill="none" xmlns="http://www.w3.org/2000/svg">
<path fill-rule="evenodd" clip-rule="evenodd" d="M37.5097 0C47.4546 0.0105686 56.9894 3.96599 64.0215 10.998C71.0534 18.0301 75.008 27.565 75.0185 37.5098C75.0185 44.9283 72.8188 52.1803 68.6972 58.3486C64.5757 64.5169 58.718 69.3251 51.8642 72.1641C45.0103 75.0031 37.4675 75.7452 30.1914 74.2979C22.9154 72.8505 16.232 69.2779 10.9863 64.0322C5.7406 58.7865 2.16798 52.1032 0.720678 44.8271C-0.72663 37.551 0.0164583 30.0092 2.85544 23.1553C5.69441 16.3014 10.5016 10.4429 16.6699 6.32129C22.8383 2.19969 30.0911 0 37.5097 0ZM49.6552 8.18652C43.8558 5.78434 37.474 5.15622 31.3174 6.38086C25.1607 7.60554 19.5051 10.6277 15.0664 15.0664C10.6277 19.5051 7.60549 25.1607 6.38083 31.3174C5.15619 37.4741 5.78429 43.8558 8.1865 49.6553C10.5887 55.4547 14.6566 60.4119 19.876 63.8994C25.0954 67.3869 31.2324 69.248 37.5097 69.248C45.9243 69.2384 53.9913 65.8914 59.9414 59.9414C65.8914 53.9914 69.2384 45.9244 69.248 37.5098C69.248 31.2324 67.3869 25.0954 63.8994 19.876C60.4119 14.6566 55.4547 10.5887 49.6552 8.18652ZM53.5302 17.6152C54.0722 17.3429 54.6863 17.2481 55.2851 17.3447C55.8839 17.4413 56.4373 17.7244 56.8662 18.1533C57.2948 18.5821 57.5772 19.1349 57.6738 19.7334C57.7704 20.3321 57.6764 20.9464 57.4043 21.4883L45.8623 44.5713C45.5819 45.1293 45.1293 45.582 44.5713 45.8623L21.4883 57.4043C21.0869 57.6028 20.645 57.7064 20.1972 57.707C19.7052 57.7074 19.2208 57.5812 18.791 57.3418C18.3613 57.1024 17.9999 56.7572 17.7412 56.3389C17.4824 55.9204 17.3346 55.4427 17.3125 54.9512C17.2904 54.4596 17.395 53.9703 17.6152 53.5303L29.1562 30.4473C29.4365 29.8893 29.8893 29.4366 30.4472 29.1562L53.5302 17.6152ZM33.9023 33.9023L26.6494 48.3691L41.1162 41.1162L48.3838 26.6641L33.9023 33.9023Z" fill="#38A18F"/>
</svg>
