<svg width="73" height="99" viewBox="0 0 73 99" fill="none" xmlns="http://www.w3.org/2000/svg">
<path fill-rule="evenodd" clip-rule="evenodd" d="M48.7695 0.0488508C49.4721 -0.0736622 50.1959 0.0357445 50.831 0.360374C51.4662 0.685161 51.9788 1.20815 52.291 1.84963C52.6031 2.49112 52.6979 3.21678 52.5615 3.91701L46.5361 34.0567L70.2138 42.9395C70.7214 43.128 71.1747 43.439 71.5331 43.8447C71.8916 44.2506 72.145 44.7386 72.2695 45.2656C72.3911 45.7903 72.3821 46.3372 72.2431 46.8574C72.1041 47.3776 71.8387 47.8561 71.4716 48.25L25.4394 97.5713C24.9516 98.0919 24.3082 98.44 23.6054 98.5625C22.9027 98.6851 22.1791 98.5757 21.5439 98.251C20.9087 97.9262 20.3961 97.4033 20.0839 96.7617C19.7719 96.1203 19.677 95.3946 19.8134 94.6944L25.8222 64.5879L2.13569 55.7051C1.6272 55.5148 1.17331 55.2013 0.815375 54.793C0.45755 54.3847 0.206021 53.8943 0.0839296 53.3653C-0.0381863 52.8361 -0.0267072 52.2847 0.116156 51.7608C0.259045 51.2368 0.5294 50.7563 0.903266 50.3623L46.9355 1.04006C47.4232 0.519598 48.0668 0.171406 48.7695 0.0488508ZM9.06147 51.2422L30.7783 59.4004C31.5063 59.6771 32.1129 60.2038 32.4892 60.8858C32.8654 61.5676 32.9878 62.3607 32.8339 63.124L28.5302 84.6533L63.2968 47.3701L41.5966 39.2315C40.8686 38.9548 40.262 38.429 39.8857 37.7471C39.5093 37.0651 39.387 36.2714 39.541 35.5078L43.8408 13.9785L9.06147 51.2422Z" fill="#82FB8E"/>
</svg>
