<svg width="33" height="25" viewBox="0 0 33 25" fill="none" xmlns="http://www.w3.org/2000/svg">
<path d="M31.1504 0C31.4809 0 31.7985 0.131558 32.0322 0.365234C32.2657 0.598882 32.3965 0.915769 32.3965 1.24609V22.4287C32.3965 23.0895 32.1342 23.7231 31.667 24.1904C31.1998 24.6577 30.566 24.9208 29.9053 24.9209H2.49219C1.83125 24.9209 1.19685 24.6578 0.729492 24.1904C0.262397 23.7231 3.23176e-05 23.0894 0 22.4287V1.24609C0 0.915625 0.131558 0.598911 0.365234 0.365234C0.598911 0.131558 0.915625 0 1.24609 0H31.1504ZM17.0352 15.8711C16.8053 16.0821 16.5044 16.1992 16.1924 16.1992C15.8803 16.1992 15.5795 16.0821 15.3496 15.8711L13.4805 14.1504L4.4502 22.4287H27.9375L18.9043 14.1504L17.0352 15.8711ZM20.7607 12.46L29.9053 20.8428V4.07812L20.7607 12.46ZM2.49219 20.8418L11.6367 12.46L2.49219 4.0791V20.8418ZM4.4502 2.49219L16.1982 13.2627L27.9473 2.49219H4.4502Z" fill="#003F35"/>
</svg>
