<svg width="620" height="532" viewBox="0 0 620 532" fill="none" xmlns="http://www.w3.org/2000/svg">
<rect x="111.565" y="152.198" width="380.308" height="379.097" rx="38.9536" fill="white" stroke="#1D5E5A" stroke-width="1.06722"/>
<rect x="76.7367" y="121.604" width="450.016" height="379.097" rx="38.9536" fill="white" stroke="#1D5E5A" stroke-width="1.06722"/>
<rect x="38.9945" y="88.2406" width="532.885" height="379.097" rx="38.9536" fill="white" stroke="#1D5E5A" stroke-width="1.06722"/>
<rect x="0.619424" y="0.619424" width="618.581" height="440.062" rx="45.2179" fill="#D2F0EE" stroke="#1D5E5A" stroke-width="1.23885"/>
<path d="M0.820312 275.744H617.766V392.196C617.766 418.879 596.135 440.511 569.451 440.511H49.1354C22.4518 440.511 0.820312 418.879 0.820312 392.196V275.744Z" fill="white"/>
<path d="M101.816 350.127V335.711H103.562V348.578H110.263V350.127H101.816ZM117.133 350.352C116.157 350.352 115.3 350.12 114.564 349.655C113.832 349.191 113.259 348.541 112.846 347.706C112.438 346.87 112.234 345.894 112.234 344.777C112.234 343.651 112.438 342.668 112.846 341.828C113.259 340.988 113.832 340.336 114.564 339.871C115.3 339.407 116.157 339.174 117.133 339.174C118.109 339.174 118.963 339.407 119.695 339.871C120.432 340.336 121.004 340.988 121.412 341.828C121.825 342.668 122.032 343.651 122.032 344.777C122.032 345.894 121.825 346.87 121.412 347.706C121.004 348.541 120.432 349.191 119.695 349.655C118.963 350.12 118.109 350.352 117.133 350.352ZM117.133 348.86C117.874 348.86 118.484 348.67 118.963 348.29C119.442 347.91 119.796 347.41 120.026 346.791C120.256 346.171 120.371 345.5 120.371 344.777C120.371 344.055 120.256 343.381 120.026 342.757C119.796 342.133 119.442 341.629 118.963 341.244C118.484 340.859 117.874 340.667 117.133 340.667C116.391 340.667 115.781 340.859 115.303 341.244C114.824 341.629 114.47 342.133 114.24 342.757C114.01 343.381 113.895 344.055 113.895 344.777C113.895 345.5 114.01 346.171 114.24 346.791C114.47 347.41 114.824 347.91 115.303 348.29C115.781 348.67 116.391 348.86 117.133 348.86ZM124.568 350.127V339.315H126.173V340.948H126.285C126.482 340.413 126.839 339.979 127.355 339.646C127.871 339.313 128.453 339.146 129.101 339.146C129.223 339.146 129.375 339.149 129.558 339.153C129.741 339.158 129.88 339.165 129.974 339.174V340.864C129.917 340.85 129.788 340.829 129.586 340.8C129.389 340.768 129.18 340.751 128.96 340.751C128.434 340.751 127.965 340.861 127.552 341.082C127.144 341.298 126.82 341.598 126.581 341.983C126.346 342.363 126.229 342.797 126.229 343.285V350.127H124.568ZM136.147 350.352C135.105 350.352 134.206 350.122 133.451 349.662C132.7 349.198 132.12 348.55 131.712 347.72C131.309 346.884 131.107 345.913 131.107 344.806C131.107 343.698 131.309 342.722 131.712 341.877C132.12 341.028 132.688 340.366 133.416 339.892C134.148 339.414 135.002 339.174 135.978 339.174C136.541 339.174 137.097 339.268 137.646 339.456C138.195 339.644 138.695 339.949 139.145 340.371C139.596 340.789 139.955 341.342 140.222 342.032C140.49 342.722 140.623 343.571 140.623 344.58V345.284H132.289V343.848H138.934C138.934 343.238 138.812 342.694 138.568 342.215C138.329 341.737 137.986 341.359 137.54 341.082C137.099 340.805 136.578 340.667 135.978 340.667C135.316 340.667 134.744 340.831 134.26 341.159C133.782 341.483 133.413 341.906 133.155 342.426C132.897 342.947 132.768 343.506 132.768 344.102V345.059C132.768 345.875 132.909 346.568 133.19 347.135C133.477 347.699 133.873 348.128 134.38 348.424C134.887 348.714 135.476 348.86 136.147 348.86C136.583 348.86 136.977 348.799 137.329 348.677C137.686 348.55 137.993 348.363 138.251 348.114C138.509 347.86 138.709 347.546 138.85 347.171L140.454 347.621C140.286 348.165 140.002 348.644 139.603 349.057C139.204 349.465 138.711 349.784 138.125 350.014C137.538 350.24 136.879 350.352 136.147 350.352ZM143.15 350.127V339.315H144.755V341.005H144.896C145.121 340.427 145.485 339.979 145.987 339.66C146.489 339.336 147.092 339.174 147.796 339.174C148.509 339.174 149.103 339.336 149.577 339.66C150.056 339.979 150.429 340.427 150.696 341.005H150.809C151.086 340.446 151.501 340.003 152.055 339.674C152.608 339.341 153.272 339.174 154.047 339.174C155.013 339.174 155.804 339.477 156.419 340.082C157.033 340.683 157.341 341.619 157.341 342.891V350.127H155.68V342.891C155.68 342.093 155.461 341.523 155.025 341.181C154.589 340.838 154.075 340.667 153.483 340.667C152.723 340.667 152.134 340.897 151.717 341.356C151.299 341.812 151.09 342.389 151.09 343.088V350.127H149.401V342.722C149.401 342.107 149.201 341.612 148.803 341.237C148.404 340.857 147.89 340.667 147.261 340.667C146.829 340.667 146.426 340.782 146.05 341.012C145.68 341.242 145.379 341.561 145.149 341.969C144.924 342.372 144.812 342.839 144.812 343.37V350.127H143.15ZM165.953 350.127V339.315H167.614V350.127H165.953ZM166.798 337.513C166.474 337.513 166.195 337.403 165.96 337.182C165.73 336.962 165.615 336.697 165.615 336.387C165.615 336.077 165.73 335.812 165.96 335.592C166.195 335.371 166.474 335.261 166.798 335.261C167.121 335.261 167.398 335.371 167.628 335.592C167.863 335.812 167.98 336.077 167.98 336.387C167.98 336.697 167.863 336.962 167.628 337.182C167.398 337.403 167.121 337.513 166.798 337.513ZM170.657 354.181V339.315H172.262V341.033H172.459C172.581 340.845 172.75 340.606 172.965 340.315C173.186 340.019 173.5 339.756 173.909 339.526C174.322 339.292 174.88 339.174 175.584 339.174C176.494 339.174 177.297 339.402 177.991 339.857C178.686 340.312 179.228 340.958 179.617 341.793C180.007 342.628 180.201 343.614 180.201 344.749C180.201 345.894 180.007 346.887 179.617 347.727C179.228 348.562 178.688 349.21 177.998 349.669C177.308 350.125 176.513 350.352 175.612 350.352C174.918 350.352 174.361 350.237 173.944 350.007C173.526 349.773 173.205 349.508 172.98 349.212C172.754 348.912 172.581 348.663 172.459 348.466H172.318V354.181H170.657ZM172.29 344.721C172.29 345.538 172.409 346.258 172.649 346.882C172.888 347.501 173.238 347.987 173.697 348.339C174.157 348.686 174.72 348.86 175.387 348.86C176.081 348.86 176.661 348.677 177.125 348.311C177.595 347.94 177.947 347.443 178.181 346.819C178.421 346.19 178.54 345.491 178.54 344.721C178.54 343.961 178.423 343.276 178.188 342.666C177.958 342.051 177.609 341.565 177.139 341.209C176.675 340.847 176.091 340.667 175.387 340.667C174.711 340.667 174.143 340.838 173.683 341.181C173.224 341.518 172.876 341.992 172.642 342.602C172.407 343.208 172.29 343.914 172.29 344.721ZM190.394 341.737L188.902 342.159C188.808 341.91 188.669 341.669 188.486 341.434C188.308 341.195 188.064 340.997 187.754 340.843C187.444 340.688 187.048 340.61 186.565 340.61C185.903 340.61 185.352 340.763 184.91 341.068C184.474 341.368 184.256 341.751 184.256 342.215C184.256 342.628 184.406 342.954 184.706 343.194C185.007 343.433 185.476 343.632 186.114 343.792L187.719 344.186C188.686 344.421 189.406 344.78 189.88 345.263C190.354 345.742 190.591 346.359 190.591 347.114C190.591 347.734 190.413 348.287 190.056 348.775C189.704 349.264 189.211 349.648 188.578 349.93C187.944 350.211 187.207 350.352 186.367 350.352C185.265 350.352 184.352 350.113 183.629 349.634C182.907 349.156 182.449 348.456 182.257 347.537L183.833 347.142C183.984 347.724 184.268 348.161 184.685 348.452C185.108 348.743 185.659 348.888 186.339 348.888C187.114 348.888 187.728 348.724 188.184 348.395C188.643 348.062 188.873 347.663 188.873 347.199C188.873 346.823 188.742 346.509 188.479 346.256C188.216 345.997 187.813 345.805 187.268 345.678L185.467 345.256C184.476 345.021 183.749 344.658 183.284 344.165C182.825 343.668 182.595 343.046 182.595 342.3C182.595 341.69 182.766 341.15 183.108 340.681C183.456 340.211 183.927 339.843 184.523 339.576C185.124 339.308 185.804 339.174 186.565 339.174C187.635 339.174 188.474 339.409 189.085 339.878C189.699 340.348 190.136 340.967 190.394 341.737ZM199.905 345.707V339.315H201.566V350.127H199.905V348.297H199.792C199.539 348.846 199.145 349.313 198.61 349.698C198.075 350.078 197.399 350.268 196.583 350.268C195.907 350.268 195.306 350.12 194.781 349.824C194.255 349.524 193.842 349.073 193.542 348.473C193.242 347.867 193.091 347.105 193.091 346.185V339.315H194.753V346.073C194.753 346.861 194.973 347.49 195.414 347.959C195.86 348.428 196.428 348.663 197.118 348.663C197.531 348.663 197.951 348.557 198.378 348.346C198.809 348.135 199.171 347.811 199.462 347.375C199.757 346.938 199.905 346.382 199.905 345.707ZM204.609 350.127V339.315H206.214V341.005H206.354C206.58 340.427 206.943 339.979 207.446 339.66C207.948 339.336 208.551 339.174 209.255 339.174C209.968 339.174 210.561 339.336 211.035 339.66C211.514 339.979 211.887 340.427 212.155 341.005H212.267C212.544 340.446 212.959 340.003 213.513 339.674C214.067 339.341 214.731 339.174 215.505 339.174C216.472 339.174 217.262 339.477 217.877 340.082C218.492 340.683 218.799 341.619 218.799 342.891V350.127H217.138V342.891C217.138 342.093 216.92 341.523 216.483 341.181C216.047 340.838 215.533 340.667 214.942 340.667C214.182 340.667 213.593 340.897 213.175 341.356C212.758 341.812 212.549 342.389 212.549 343.088V350.127H210.859V342.722C210.859 342.107 210.66 341.612 210.261 341.237C209.862 340.857 209.348 340.667 208.72 340.667C208.288 340.667 207.884 340.782 207.509 341.012C207.138 341.242 206.838 341.561 206.608 341.969C206.383 342.372 206.27 342.839 206.27 343.37V350.127H204.609ZM231.494 350.352C230.593 350.352 229.798 350.125 229.108 349.669C228.418 349.21 227.878 348.562 227.489 347.727C227.099 346.887 226.905 345.894 226.905 344.749C226.905 343.614 227.099 342.628 227.489 341.793C227.878 340.958 228.42 340.312 229.115 339.857C229.809 339.402 230.612 339.174 231.522 339.174C232.226 339.174 232.782 339.292 233.19 339.526C233.603 339.756 233.918 340.019 234.134 340.315C234.354 340.606 234.525 340.845 234.647 341.033H234.788V335.711H236.449V350.127H234.844V348.466H234.647C234.525 348.663 234.352 348.912 234.126 349.212C233.901 349.508 233.58 349.773 233.162 350.007C232.745 350.237 232.188 350.352 231.494 350.352ZM231.719 348.86C232.386 348.86 232.949 348.686 233.409 348.339C233.868 347.987 234.218 347.501 234.457 346.882C234.697 346.258 234.816 345.538 234.816 344.721C234.816 343.914 234.699 343.208 234.464 342.602C234.23 341.992 233.882 341.518 233.423 341.181C232.963 340.838 232.395 340.667 231.719 340.667C231.015 340.667 230.429 340.847 229.959 341.209C229.495 341.565 229.145 342.051 228.911 342.666C228.681 343.276 228.566 343.961 228.566 344.721C228.566 345.491 228.683 346.19 228.918 346.819C229.157 347.443 229.509 347.94 229.974 348.311C230.443 348.677 231.025 348.86 231.719 348.86ZM244.115 350.352C243.139 350.352 242.282 350.12 241.545 349.655C240.813 349.191 240.241 348.541 239.828 347.706C239.42 346.87 239.216 345.894 239.216 344.777C239.216 343.651 239.42 342.668 239.828 341.828C240.241 340.988 240.813 340.336 241.545 339.871C242.282 339.407 243.139 339.174 244.115 339.174C245.091 339.174 245.945 339.407 246.677 339.871C247.414 340.336 247.986 340.988 248.394 341.828C248.807 342.668 249.014 343.651 249.014 344.777C249.014 345.894 248.807 346.87 248.394 347.706C247.986 348.541 247.414 349.191 246.677 349.655C245.945 350.12 245.091 350.352 244.115 350.352ZM244.115 348.86C244.856 348.86 245.466 348.67 245.945 348.29C246.423 347.91 246.778 347.41 247.008 346.791C247.238 346.171 247.353 345.5 247.353 344.777C247.353 344.055 247.238 343.381 247.008 342.757C246.778 342.133 246.423 341.629 245.945 341.244C245.466 340.859 244.856 340.667 244.115 340.667C243.373 340.667 242.763 340.859 242.285 341.244C241.806 341.629 241.452 342.133 241.222 342.757C240.992 343.381 240.877 344.055 240.877 344.777C240.877 345.5 240.992 346.171 241.222 346.791C241.452 347.41 241.806 347.91 242.285 348.29C242.763 348.67 243.373 348.86 244.115 348.86ZM253.211 335.711V350.127H251.55V335.711H253.211ZM260.646 350.352C259.669 350.352 258.813 350.12 258.076 349.655C257.344 349.191 256.772 348.541 256.359 347.706C255.951 346.87 255.746 345.894 255.746 344.777C255.746 343.651 255.951 342.668 256.359 341.828C256.772 340.988 257.344 340.336 258.076 339.871C258.813 339.407 259.669 339.174 260.646 339.174C261.622 339.174 262.476 339.407 263.208 339.871C263.944 340.336 264.517 340.988 264.925 341.828C265.338 342.668 265.545 343.651 265.545 344.777C265.545 345.894 265.338 346.87 264.925 347.706C264.517 348.541 263.944 349.191 263.208 349.655C262.476 350.12 261.622 350.352 260.646 350.352ZM260.646 348.86C261.387 348.86 261.997 348.67 262.476 348.29C262.954 347.91 263.309 347.41 263.539 346.791C263.768 346.171 263.883 345.5 263.883 344.777C263.883 344.055 263.768 343.381 263.539 342.757C263.309 342.133 262.954 341.629 262.476 341.244C261.997 340.859 261.387 340.667 260.646 340.667C259.904 340.667 259.294 340.859 258.815 341.244C258.337 341.629 257.983 342.133 257.753 342.757C257.523 343.381 257.408 344.055 257.408 344.777C257.408 345.5 257.523 346.171 257.753 346.791C257.983 347.41 258.337 347.91 258.815 348.29C259.294 348.67 259.904 348.86 260.646 348.86ZM268.08 350.127V339.315H269.685V340.948H269.798C269.995 340.413 270.352 339.979 270.868 339.646C271.384 339.313 271.966 339.146 272.613 339.146C272.735 339.146 272.888 339.149 273.071 339.153C273.254 339.158 273.392 339.165 273.486 339.174V340.864C273.43 340.85 273.301 340.829 273.099 340.8C272.902 340.768 272.693 340.751 272.473 340.751C271.947 340.751 271.478 340.861 271.065 341.082C270.657 341.298 270.333 341.598 270.094 341.983C269.859 342.363 269.742 342.797 269.742 343.285V350.127H268.08ZM288.689 341.737L287.196 342.159C287.102 341.91 286.964 341.669 286.781 341.434C286.603 341.195 286.359 340.997 286.049 340.843C285.739 340.688 285.343 340.61 284.859 340.61C284.198 340.61 283.646 340.763 283.205 341.068C282.769 341.368 282.551 341.751 282.551 342.215C282.551 342.628 282.701 342.954 283.001 343.194C283.301 343.433 283.771 343.632 284.409 343.792L286.014 344.186C286.98 344.421 287.701 344.78 288.175 345.263C288.649 345.742 288.886 346.359 288.886 347.114C288.886 347.734 288.707 348.287 288.351 348.775C287.999 349.264 287.506 349.648 286.873 349.93C286.239 350.211 285.502 350.352 284.662 350.352C283.56 350.352 282.647 350.113 281.924 349.634C281.202 349.156 280.744 348.456 280.552 347.537L282.128 347.142C282.278 347.724 282.562 348.161 282.98 348.452C283.402 348.743 283.954 348.888 284.634 348.888C285.408 348.888 286.023 348.724 286.478 348.395C286.938 348.062 287.168 347.663 287.168 347.199C287.168 346.823 287.037 346.509 286.774 346.256C286.511 345.997 286.108 345.805 285.563 345.678L283.761 345.256C282.771 345.021 282.044 344.658 281.579 344.165C281.119 343.668 280.889 343.046 280.889 342.3C280.889 341.69 281.061 341.15 281.403 340.681C281.751 340.211 282.222 339.843 282.818 339.576C283.419 339.308 284.099 339.174 284.859 339.174C285.929 339.174 286.769 339.409 287.379 339.878C287.994 340.348 288.43 340.967 288.689 341.737ZM291.386 350.127V339.315H293.047V350.127H291.386ZM292.231 337.513C291.907 337.513 291.628 337.403 291.393 337.182C291.163 336.962 291.048 336.697 291.048 336.387C291.048 336.077 291.163 335.812 291.393 335.592C291.628 335.371 291.907 335.261 292.231 335.261C292.555 335.261 292.832 335.371 293.061 335.592C293.296 335.812 293.413 336.077 293.413 336.387C293.413 336.697 293.296 336.962 293.061 337.182C292.832 337.403 292.555 337.513 292.231 337.513ZM300.792 339.315V340.723H295.189V339.315H300.792ZM296.822 336.725H298.483V347.03C298.483 347.499 298.551 347.851 298.687 348.086C298.828 348.316 299.006 348.47 299.222 348.55C299.443 348.625 299.675 348.663 299.919 348.663C300.102 348.663 300.252 348.653 300.37 348.635C300.487 348.611 300.581 348.592 300.651 348.578L300.989 350.071C300.876 350.113 300.719 350.155 300.517 350.197C300.316 350.244 300.06 350.268 299.75 350.268C299.281 350.268 298.821 350.167 298.371 349.965C297.925 349.763 297.554 349.456 297.258 349.043C296.967 348.63 296.822 348.109 296.822 347.48V336.725ZM312.047 350.38C311.362 350.38 310.74 350.251 310.182 349.993C309.623 349.73 309.18 349.353 308.852 348.86C308.523 348.363 308.359 347.762 308.359 347.058C308.359 346.439 308.481 345.936 308.725 345.552C308.969 345.162 309.295 344.857 309.703 344.637C310.111 344.416 310.562 344.252 311.055 344.144C311.552 344.031 312.052 343.942 312.554 343.876C313.211 343.792 313.744 343.729 314.152 343.686C314.565 343.639 314.865 343.562 315.053 343.454C315.245 343.346 315.341 343.158 315.341 342.891V342.835C315.341 342.14 315.151 341.6 314.771 341.216C314.396 340.831 313.826 340.639 313.061 340.639C312.268 340.639 311.646 340.812 311.195 341.159C310.745 341.507 310.428 341.877 310.245 342.272L308.668 341.708C308.95 341.051 309.325 340.54 309.795 340.174C310.269 339.803 310.785 339.545 311.343 339.4C311.906 339.249 312.46 339.174 313.004 339.174C313.352 339.174 313.751 339.217 314.201 339.301C314.656 339.381 315.095 339.547 315.517 339.801C315.944 340.054 316.299 340.437 316.58 340.948C316.862 341.46 317.003 342.145 317.003 343.004V350.127H315.341V348.663H315.257C315.144 348.897 314.957 349.149 314.694 349.416C314.431 349.684 314.081 349.911 313.645 350.099C313.209 350.287 312.676 350.38 312.047 350.38ZM312.301 348.888C312.958 348.888 313.511 348.759 313.962 348.501C314.417 348.243 314.759 347.91 314.989 347.501C315.224 347.093 315.341 346.664 315.341 346.213V344.693C315.271 344.777 315.116 344.855 314.877 344.925C314.642 344.991 314.37 345.05 314.06 345.101C313.755 345.148 313.457 345.19 313.166 345.228C312.88 345.261 312.648 345.289 312.47 345.312C312.038 345.369 311.634 345.46 311.259 345.587C310.888 345.709 310.588 345.894 310.358 346.143C310.133 346.387 310.02 346.72 310.02 347.142C310.02 347.72 310.233 348.156 310.661 348.452C311.092 348.743 311.639 348.888 312.301 348.888ZM320.035 350.127V339.315H321.639V341.005H321.78C322.005 340.427 322.369 339.979 322.871 339.66C323.373 339.336 323.976 339.174 324.68 339.174C325.394 339.174 325.987 339.336 326.461 339.66C326.94 339.979 327.313 340.427 327.58 341.005H327.693C327.97 340.446 328.385 340.003 328.939 339.674C329.493 339.341 330.157 339.174 330.931 339.174C331.897 339.174 332.688 339.477 333.303 340.082C333.918 340.683 334.225 341.619 334.225 342.891V350.127H332.564V342.891C332.564 342.093 332.346 341.523 331.909 341.181C331.473 340.838 330.959 340.667 330.368 340.667C329.607 340.667 329.019 340.897 328.601 341.356C328.183 341.812 327.974 342.389 327.974 343.088V350.127H326.285V342.722C326.285 342.107 326.086 341.612 325.687 341.237C325.288 340.857 324.774 340.667 324.145 340.667C323.714 340.667 323.31 340.782 322.935 341.012C322.564 341.242 322.264 341.561 322.034 341.969C321.808 342.372 321.696 342.839 321.696 343.37V350.127H320.035ZM341.795 350.352C340.754 350.352 339.855 350.122 339.099 349.662C338.349 349.198 337.769 348.55 337.361 347.72C336.957 346.884 336.755 345.913 336.755 344.806C336.755 343.698 336.957 342.722 337.361 341.877C337.769 341.028 338.337 340.366 339.064 339.892C339.796 339.414 340.65 339.174 341.626 339.174C342.19 339.174 342.746 339.268 343.295 339.456C343.844 339.644 344.343 339.949 344.794 340.371C345.244 340.789 345.603 341.342 345.871 342.032C346.138 342.722 346.272 343.571 346.272 344.58V345.284H337.938V343.848H344.583C344.583 343.238 344.461 342.694 344.217 342.215C343.977 341.737 343.635 341.359 343.189 341.082C342.748 340.805 342.227 340.667 341.626 340.667C340.965 340.667 340.392 340.831 339.909 341.159C339.43 341.483 339.062 341.906 338.804 342.426C338.546 342.947 338.417 343.506 338.417 344.102V345.059C338.417 345.875 338.557 346.568 338.839 347.135C339.125 347.699 339.522 348.128 340.029 348.424C340.535 348.714 341.124 348.86 341.795 348.86C342.232 348.86 342.626 348.799 342.978 348.677C343.335 348.55 343.642 348.363 343.9 348.114C344.158 347.86 344.358 347.546 344.498 347.171L346.103 347.621C345.934 348.165 345.65 348.644 345.251 349.057C344.853 349.465 344.36 349.784 343.773 350.014C343.187 350.24 342.527 350.352 341.795 350.352ZM353.501 339.315V340.723H347.898V339.315H353.501ZM349.531 336.725H351.192V347.03C351.192 347.499 351.26 347.851 351.396 348.086C351.537 348.316 351.716 348.47 351.931 348.55C352.152 348.625 352.384 348.663 352.628 348.663C352.811 348.663 352.961 348.653 353.079 348.635C353.196 348.611 353.29 348.592 353.36 348.578L353.698 350.071C353.586 350.113 353.428 350.155 353.227 350.197C353.025 350.244 352.769 350.268 352.459 350.268C351.99 350.268 351.53 350.167 351.08 349.965C350.634 349.763 350.263 349.456 349.968 349.043C349.677 348.63 349.531 348.109 349.531 347.48V336.725ZM365.967 350.352C364.953 350.352 364.081 350.113 363.348 349.634C362.616 349.156 362.053 348.496 361.659 347.656C361.265 346.816 361.068 345.857 361.068 344.777C361.068 343.679 361.27 342.71 361.673 341.87C362.081 341.026 362.649 340.366 363.377 339.892C364.109 339.414 364.963 339.174 365.939 339.174C366.699 339.174 367.384 339.315 367.994 339.597C368.604 339.878 369.104 340.272 369.493 340.779C369.883 341.286 370.125 341.877 370.218 342.553H368.557C368.431 342.06 368.149 341.624 367.713 341.244C367.281 340.859 366.699 340.667 365.967 340.667C365.319 340.667 364.752 340.836 364.264 341.173C363.78 341.507 363.402 341.978 363.13 342.588C362.863 343.194 362.729 343.905 362.729 344.721C362.729 345.556 362.86 346.284 363.123 346.903C363.391 347.523 363.766 348.004 364.249 348.346C364.737 348.689 365.31 348.86 365.967 348.86C366.399 348.86 366.79 348.785 367.142 348.635C367.494 348.485 367.792 348.269 368.036 347.987C368.28 347.706 368.454 347.368 368.557 346.974H370.218C370.125 347.612 369.892 348.187 369.522 348.698C369.156 349.205 368.67 349.608 368.065 349.909C367.464 350.204 366.765 350.352 365.967 350.352ZM377.039 350.352C376.063 350.352 375.207 350.12 374.47 349.655C373.738 349.191 373.165 348.541 372.752 347.706C372.344 346.87 372.14 345.894 372.14 344.777C372.14 343.651 372.344 342.668 372.752 341.828C373.165 340.988 373.738 340.336 374.47 339.871C375.207 339.407 376.063 339.174 377.039 339.174C378.015 339.174 378.869 339.407 379.601 339.871C380.338 340.336 380.911 340.988 381.319 341.828C381.732 342.668 381.938 343.651 381.938 344.777C381.938 345.894 381.732 346.87 381.319 347.706C380.911 348.541 380.338 349.191 379.601 349.655C378.869 350.12 378.015 350.352 377.039 350.352ZM377.039 348.86C377.781 348.86 378.391 348.67 378.869 348.29C379.348 347.91 379.702 347.41 379.932 346.791C380.162 346.171 380.277 345.5 380.277 344.777C380.277 344.055 380.162 343.381 379.932 342.757C379.702 342.133 379.348 341.629 378.869 341.244C378.391 340.859 377.781 340.667 377.039 340.667C376.298 340.667 375.688 340.859 375.209 341.244C374.73 341.629 374.376 342.133 374.146 342.757C373.916 343.381 373.801 344.055 373.801 344.777C373.801 345.5 373.916 346.171 374.146 346.791C374.376 347.41 374.73 347.91 375.209 348.29C375.688 348.67 376.298 348.86 377.039 348.86ZM386.135 343.623V350.127H384.474V339.315H386.079V341.005H386.22C386.473 340.455 386.858 340.014 387.374 339.681C387.89 339.343 388.557 339.174 389.373 339.174C390.105 339.174 390.746 339.325 391.295 339.625C391.844 339.921 392.271 340.371 392.576 340.976C392.881 341.577 393.033 342.337 393.033 343.257V350.127H391.372V343.37C391.372 342.52 391.152 341.859 390.71 341.385C390.269 340.906 389.664 340.667 388.894 340.667C388.364 340.667 387.89 340.782 387.473 341.012C387.06 341.242 386.734 341.577 386.494 342.018C386.255 342.459 386.135 342.994 386.135 343.623ZM403.727 341.737L402.235 342.159C402.141 341.91 402.003 341.669 401.82 341.434C401.641 341.195 401.397 340.997 401.088 340.843C400.778 340.688 400.381 340.61 399.898 340.61C399.236 340.61 398.685 340.763 398.244 341.068C397.807 341.368 397.589 341.751 397.589 342.215C397.589 342.628 397.739 342.954 398.04 343.194C398.34 343.433 398.809 343.632 399.447 343.792L401.052 344.186C402.019 344.421 402.739 344.78 403.213 345.263C403.687 345.742 403.924 346.359 403.924 347.114C403.924 347.734 403.746 348.287 403.389 348.775C403.037 349.264 402.545 349.648 401.911 349.93C401.278 350.211 400.541 350.352 399.701 350.352C398.598 350.352 397.685 350.113 396.963 349.634C396.24 349.156 395.783 348.456 395.59 347.537L397.167 347.142C397.317 347.724 397.601 348.161 398.019 348.452C398.441 348.743 398.992 348.888 399.673 348.888C400.447 348.888 401.062 348.724 401.517 348.395C401.977 348.062 402.207 347.663 402.207 347.199C402.207 346.823 402.075 346.509 401.813 346.256C401.55 345.997 401.146 345.805 400.602 345.678L398.8 345.256C397.81 345.021 397.082 344.658 396.618 344.165C396.158 343.668 395.928 343.046 395.928 342.3C395.928 341.69 396.099 341.15 396.442 340.681C396.789 340.211 397.261 339.843 397.857 339.576C398.457 339.308 399.138 339.174 399.898 339.174C400.968 339.174 401.808 339.409 402.418 339.878C403.033 340.348 403.469 340.967 403.727 341.737ZM410.958 350.352C409.916 350.352 409.017 350.122 408.262 349.662C407.511 349.198 406.932 348.55 406.523 347.72C406.12 346.884 405.918 345.913 405.918 344.806C405.918 343.698 406.12 342.722 406.523 341.877C406.932 341.028 407.499 340.366 408.227 339.892C408.959 339.414 409.813 339.174 410.789 339.174C411.352 339.174 411.908 339.268 412.457 339.456C413.006 339.644 413.506 339.949 413.956 340.371C414.407 340.789 414.766 341.342 415.033 342.032C415.301 342.722 415.435 343.571 415.435 344.58V345.284H407.101V343.848H413.745C413.745 343.238 413.623 342.694 413.379 342.215C413.14 341.737 412.797 341.359 412.352 341.082C411.91 340.805 411.39 340.667 410.789 340.667C410.127 340.667 409.555 340.831 409.071 341.159C408.593 341.483 408.224 341.906 407.966 342.426C407.708 342.947 407.579 343.506 407.579 344.102V345.059C407.579 345.875 407.72 346.568 408.002 347.135C408.288 347.699 408.684 348.128 409.191 348.424C409.698 348.714 410.287 348.86 410.958 348.86C411.394 348.86 411.788 348.799 412.14 348.677C412.497 348.55 412.804 348.363 413.063 348.114C413.321 347.86 413.52 347.546 413.661 347.171L415.266 347.621C415.097 348.165 414.813 348.644 414.414 349.057C414.015 349.465 413.522 349.784 412.936 350.014C412.349 350.24 411.69 350.352 410.958 350.352ZM422.354 350.352C421.34 350.352 420.467 350.113 419.735 349.634C419.003 349.156 418.44 348.496 418.046 347.656C417.652 346.816 417.455 345.857 417.455 344.777C417.455 343.679 417.657 342.71 418.06 341.87C418.468 341.026 419.036 340.366 419.764 339.892C420.496 339.414 421.35 339.174 422.326 339.174C423.086 339.174 423.771 339.315 424.381 339.597C424.991 339.878 425.491 340.272 425.88 340.779C426.27 341.286 426.511 341.877 426.605 342.553H424.944C424.817 342.06 424.536 341.624 424.099 341.244C423.668 340.859 423.086 340.667 422.354 340.667C421.706 340.667 421.138 340.836 420.65 341.173C420.167 341.507 419.789 341.978 419.517 342.588C419.25 343.194 419.116 343.905 419.116 344.721C419.116 345.556 419.247 346.284 419.51 346.903C419.778 347.523 420.153 348.004 420.636 348.346C421.124 348.689 421.697 348.86 422.354 348.86C422.786 348.86 423.177 348.785 423.529 348.635C423.881 348.485 424.179 348.269 424.423 347.987C424.667 347.706 424.841 347.368 424.944 346.974H426.605C426.511 347.612 426.279 348.187 425.908 348.698C425.542 349.205 425.057 349.608 424.451 349.909C423.851 350.204 423.152 350.352 422.354 350.352ZM433.736 339.315V340.723H428.133V339.315H433.736ZM429.766 336.725H431.427V347.03C431.427 347.499 431.495 347.851 431.631 348.086C431.772 348.316 431.95 348.47 432.166 348.55C432.387 348.625 432.619 348.663 432.863 348.663C433.046 348.663 433.196 348.653 433.313 348.635C433.431 348.611 433.525 348.592 433.595 348.578L433.933 350.071C433.82 350.113 433.663 350.155 433.461 350.197C433.259 350.244 433.004 350.268 432.694 350.268C432.225 350.268 431.765 350.167 431.314 349.965C430.869 349.763 430.498 349.456 430.202 349.043C429.911 348.63 429.766 348.109 429.766 347.48V336.725ZM440.651 350.352C439.61 350.352 438.711 350.122 437.956 349.662C437.205 349.198 436.625 348.55 436.217 347.72C435.813 346.884 435.612 345.913 435.612 344.806C435.612 343.698 435.813 342.722 436.217 341.877C436.625 341.028 437.193 340.366 437.92 339.892C438.652 339.414 439.506 339.174 440.483 339.174C441.046 339.174 441.602 339.268 442.151 339.456C442.7 339.644 443.2 339.949 443.65 340.371C444.101 340.789 444.46 341.342 444.727 342.032C444.994 342.722 445.128 343.571 445.128 344.58V345.284H436.794V343.848H443.439C443.439 343.238 443.317 342.694 443.073 342.215C442.834 341.737 442.491 341.359 442.045 341.082C441.604 340.805 441.083 340.667 440.483 340.667C439.821 340.667 439.248 340.831 438.765 341.159C438.286 341.483 437.918 341.906 437.66 342.426C437.402 342.947 437.273 343.506 437.273 344.102V345.059C437.273 345.875 437.414 346.568 437.695 347.135C437.981 347.699 438.378 348.128 438.885 348.424C439.392 348.714 439.98 348.86 440.651 348.86C441.088 348.86 441.482 348.799 441.834 348.677C442.191 348.55 442.498 348.363 442.756 348.114C443.014 347.86 443.214 347.546 443.354 347.171L444.959 347.621C444.79 348.165 444.506 348.644 444.108 349.057C443.709 349.465 443.216 349.784 442.629 350.014C442.043 350.24 441.384 350.352 440.651 350.352ZM452.357 339.315V340.723H446.754V339.315H452.357ZM448.387 336.725H450.048V347.03C450.048 347.499 450.117 347.851 450.253 348.086C450.393 348.316 450.572 348.47 450.788 348.55C451.008 348.625 451.24 348.663 451.484 348.663C451.667 348.663 451.818 348.653 451.935 348.635C452.052 348.611 452.146 348.592 452.216 348.578L452.554 350.071C452.442 350.113 452.284 350.155 452.083 350.197C451.881 350.244 451.625 350.268 451.315 350.268C450.846 350.268 450.386 350.167 449.936 349.965C449.49 349.763 449.119 349.456 448.824 349.043C448.533 348.63 448.387 348.109 448.387 347.48V336.725ZM461.67 345.707V339.315H463.331V350.127H461.67V348.297H461.557C461.304 348.846 460.909 349.313 460.375 349.698C459.84 350.078 459.164 350.268 458.347 350.268C457.672 350.268 457.071 350.12 456.545 349.824C456.02 349.524 455.607 349.073 455.307 348.473C455.006 347.867 454.856 347.105 454.856 346.185V339.315H456.517V346.073C456.517 346.861 456.738 347.49 457.179 347.959C457.625 348.428 458.192 348.663 458.882 348.663C459.295 348.663 459.715 348.557 460.142 348.346C460.574 348.135 460.935 347.811 461.226 347.375C461.522 346.938 461.67 346.382 461.67 345.707ZM466.373 350.127V339.315H467.978V340.948H468.091C468.288 340.413 468.645 339.979 469.161 339.646C469.677 339.313 470.259 339.146 470.906 339.146C471.028 339.146 471.181 339.149 471.364 339.153C471.547 339.158 471.685 339.165 471.779 339.174V340.864C471.723 340.85 471.594 340.829 471.392 340.8C471.195 340.768 470.986 340.751 470.766 340.751C470.24 340.751 469.771 340.861 469.358 341.082C468.95 341.298 468.626 341.598 468.387 341.983C468.152 342.363 468.035 342.797 468.035 343.285V350.127H466.373ZM473.72 350.24C473.373 350.24 473.075 350.115 472.826 349.867C472.578 349.618 472.453 349.32 472.453 348.973C472.453 348.625 472.578 348.327 472.826 348.079C473.075 347.83 473.373 347.706 473.72 347.706C474.068 347.706 474.366 347.83 474.614 348.079C474.863 348.327 474.987 348.625 474.987 348.973C474.987 349.203 474.929 349.414 474.811 349.606C474.699 349.798 474.546 349.953 474.354 350.071C474.166 350.183 473.955 350.24 473.72 350.24ZM491.652 339.315C491.567 338.602 491.225 338.048 490.624 337.654C490.024 337.26 489.287 337.063 488.414 337.063C487.776 337.063 487.217 337.166 486.739 337.372C486.265 337.579 485.894 337.863 485.627 338.224C485.364 338.585 485.232 338.996 485.232 339.456C485.232 339.841 485.324 340.172 485.507 340.448C485.695 340.721 485.934 340.948 486.225 341.131C486.516 341.31 486.821 341.457 487.14 341.575C487.459 341.687 487.752 341.779 488.02 341.849L489.484 342.243C489.859 342.342 490.277 342.478 490.737 342.652C491.201 342.825 491.645 343.062 492.067 343.363C492.494 343.658 492.846 344.038 493.123 344.503C493.4 344.967 493.538 345.538 493.538 346.213C493.538 346.992 493.334 347.696 492.926 348.325C492.522 348.954 491.931 349.454 491.152 349.824C490.378 350.195 489.437 350.38 488.33 350.38C487.297 350.38 486.403 350.214 485.648 349.881C484.897 349.547 484.306 349.083 483.874 348.487C483.447 347.891 483.205 347.199 483.149 346.41H484.951C484.998 346.955 485.181 347.405 485.5 347.762C485.824 348.114 486.232 348.377 486.725 348.55C487.222 348.719 487.757 348.804 488.33 348.804C488.996 348.804 489.594 348.696 490.124 348.48C490.655 348.259 491.075 347.954 491.384 347.565C491.694 347.171 491.849 346.711 491.849 346.185C491.849 345.707 491.715 345.317 491.448 345.017C491.18 344.716 490.828 344.472 490.392 344.285C489.955 344.097 489.484 343.933 488.977 343.792L487.203 343.285C486.077 342.961 485.185 342.499 484.528 341.898C483.872 341.298 483.543 340.512 483.543 339.54C483.543 338.733 483.761 338.029 484.198 337.429C484.639 336.823 485.23 336.354 485.971 336.021C486.718 335.683 487.551 335.514 488.47 335.514C489.399 335.514 490.225 335.681 490.948 336.014C491.671 336.342 492.243 336.793 492.665 337.365C493.092 337.938 493.318 338.588 493.341 339.315H491.652ZM500.716 350.352C499.674 350.352 498.776 350.122 498.02 349.662C497.27 349.198 496.69 348.55 496.282 347.72C495.878 346.884 495.676 345.913 495.676 344.806C495.676 343.698 495.878 342.722 496.282 341.877C496.69 341.028 497.258 340.366 497.985 339.892C498.717 339.414 499.571 339.174 500.547 339.174C501.11 339.174 501.666 339.268 502.216 339.456C502.765 339.644 503.264 339.949 503.715 340.371C504.165 340.789 504.524 341.342 504.792 342.032C505.059 342.722 505.193 343.571 505.193 344.58V345.284H496.859V343.848H503.504C503.504 343.238 503.382 342.694 503.138 342.215C502.898 341.737 502.556 341.359 502.11 341.082C501.669 340.805 501.148 340.667 500.547 340.667C499.886 340.667 499.313 340.831 498.83 341.159C498.351 341.483 497.983 341.906 497.725 342.426C497.467 342.947 497.338 343.506 497.338 344.102V345.059C497.338 345.875 497.478 346.568 497.76 347.135C498.046 347.699 498.443 348.128 498.949 348.424C499.456 348.714 500.045 348.86 500.716 348.86C501.153 348.86 501.547 348.799 501.899 348.677C502.255 348.55 502.563 348.363 502.821 348.114C503.079 347.86 503.278 347.546 503.419 347.171L505.024 347.621C504.855 348.165 504.571 348.644 504.172 349.057C503.773 349.465 503.281 349.784 502.694 350.014C502.108 350.24 501.448 350.352 500.716 350.352ZM511.803 350.352C510.902 350.352 510.106 350.125 509.416 349.669C508.727 349.21 508.187 348.562 507.797 347.727C507.408 346.887 507.213 345.894 507.213 344.749C507.213 343.614 507.408 342.628 507.797 341.793C508.187 340.958 508.729 340.312 509.423 339.857C510.118 339.402 510.92 339.174 511.831 339.174C512.535 339.174 513.091 339.292 513.499 339.526C513.912 339.756 514.226 340.019 514.442 340.315C514.663 340.606 514.834 340.845 514.956 341.033H515.097V335.711H516.758V350.127H515.153V348.466H514.956C514.834 348.663 514.66 348.912 514.435 349.212C514.21 349.508 513.888 349.773 513.471 350.007C513.053 350.237 512.497 350.352 511.803 350.352ZM512.028 348.86C512.694 348.86 513.257 348.686 513.717 348.339C514.177 347.987 514.527 347.501 514.766 346.882C515.005 346.258 515.125 345.538 515.125 344.721C515.125 343.914 515.008 343.208 514.773 342.602C514.538 341.992 514.191 341.518 513.731 341.181C513.271 340.838 512.704 340.667 512.028 340.667C511.324 340.667 510.737 340.847 510.268 341.209C509.804 341.565 509.454 342.051 509.219 342.666C508.989 343.276 508.874 343.961 508.874 344.721C508.874 345.491 508.992 346.19 509.226 346.819C509.466 347.443 509.818 347.94 510.282 348.311C510.751 348.677 511.333 348.86 512.028 348.86ZM97.8339 380.352C96.8203 380.352 95.9475 380.113 95.2154 379.634C94.4834 379.156 93.9203 378.496 93.5261 377.656C93.1319 376.816 92.9348 375.857 92.9348 374.777C92.9348 373.679 93.1366 372.71 93.5402 371.87C93.9484 371.026 94.5162 370.366 95.2436 369.892C95.9756 369.414 96.8297 369.174 97.8057 369.174C98.5659 369.174 99.2511 369.315 99.8611 369.597C100.471 369.878 100.971 370.272 101.36 370.779C101.75 371.286 101.992 371.877 102.085 372.553H100.424C100.298 372.06 100.016 371.624 99.5795 371.244C99.1478 370.859 98.5659 370.667 97.8339 370.667C97.1863 370.667 96.6185 370.836 96.1305 371.173C95.6471 371.507 95.2694 371.978 94.9972 372.588C94.7297 373.194 94.596 373.905 94.596 374.721C94.596 375.556 94.7274 376.284 94.9902 376.903C95.2577 377.523 95.6331 378.004 96.1164 378.346C96.6044 378.689 97.1769 378.86 97.8339 378.86C98.2656 378.86 98.6575 378.785 99.0094 378.635C99.3613 378.485 99.6593 378.269 99.9033 377.987C100.147 377.706 100.321 377.368 100.424 376.974H102.085C101.992 377.612 101.759 378.187 101.389 378.698C101.023 379.205 100.537 379.608 99.9315 379.909C99.3308 380.204 98.6316 380.352 97.8339 380.352ZM108.906 380.352C107.93 380.352 107.074 380.12 106.337 379.655C105.605 379.191 105.032 378.541 104.619 377.706C104.211 376.87 104.007 375.894 104.007 374.777C104.007 373.651 104.211 372.668 104.619 371.828C105.032 370.988 105.605 370.336 106.337 369.871C107.074 369.407 107.93 369.174 108.906 369.174C109.882 369.174 110.736 369.407 111.468 369.871C112.205 370.336 112.777 370.988 113.186 371.828C113.599 372.668 113.805 373.651 113.805 374.777C113.805 375.894 113.599 376.87 113.186 377.706C112.777 378.541 112.205 379.191 111.468 379.655C110.736 380.12 109.882 380.352 108.906 380.352ZM108.906 378.86C109.648 378.86 110.258 378.67 110.736 378.29C111.215 377.91 111.569 377.41 111.799 376.791C112.029 376.171 112.144 375.5 112.144 374.777C112.144 374.055 112.029 373.381 111.799 372.757C111.569 372.133 111.215 371.629 110.736 371.244C110.258 370.859 109.648 370.667 108.906 370.667C108.165 370.667 107.555 370.859 107.076 371.244C106.597 371.629 106.243 372.133 106.013 372.757C105.783 373.381 105.668 374.055 105.668 374.777C105.668 375.5 105.783 376.171 106.013 376.791C106.243 377.41 106.597 377.91 107.076 378.29C107.555 378.67 108.165 378.86 108.906 378.86ZM118.002 373.623V380.127H116.341V369.315H117.946V371.005H118.087C118.34 370.455 118.725 370.014 119.241 369.681C119.757 369.343 120.424 369.174 121.24 369.174C121.972 369.174 122.613 369.325 123.162 369.625C123.711 369.921 124.138 370.371 124.443 370.976C124.748 371.577 124.9 372.337 124.9 373.257V380.127H123.239V373.37C123.239 372.52 123.019 371.859 122.577 371.385C122.136 370.906 121.531 370.667 120.761 370.667C120.231 370.667 119.757 370.782 119.34 371.012C118.927 371.242 118.6 371.577 118.361 372.018C118.122 372.459 118.002 372.994 118.002 373.623ZM132.3 384.407C131.497 384.407 130.808 384.303 130.23 384.097C129.653 383.895 129.172 383.628 128.787 383.294C128.407 382.966 128.105 382.614 127.879 382.239L129.203 381.309C129.353 381.507 129.543 381.732 129.773 381.985C130.003 382.243 130.317 382.466 130.716 382.654C131.12 382.846 131.648 382.943 132.3 382.943C133.173 382.943 133.893 382.731 134.461 382.309C135.029 381.887 135.313 381.225 135.313 380.324V378.128H135.172C135.05 378.325 134.876 378.569 134.651 378.86C134.43 379.146 134.111 379.402 133.694 379.627C133.281 379.848 132.722 379.958 132.018 379.958C131.146 379.958 130.362 379.752 129.667 379.339C128.978 378.926 128.431 378.325 128.027 377.537C127.628 376.748 127.429 375.791 127.429 374.665C127.429 373.557 127.624 372.593 128.013 371.772C128.403 370.946 128.945 370.308 129.639 369.857C130.334 369.402 131.136 369.174 132.047 369.174C132.75 369.174 133.309 369.292 133.722 369.526C134.139 369.756 134.459 370.019 134.679 370.315C134.904 370.606 135.078 370.845 135.2 371.033H135.369V369.315H136.974V380.437C136.974 381.366 136.763 382.121 136.34 382.703C135.923 383.29 135.359 383.719 134.651 383.991C133.947 384.268 133.163 384.407 132.3 384.407ZM132.244 378.466C132.91 378.466 133.473 378.313 133.933 378.008C134.393 377.703 134.742 377.264 134.982 376.692C135.221 376.119 135.341 375.434 135.341 374.637C135.341 373.858 135.223 373.17 134.989 372.574C134.754 371.978 134.407 371.511 133.947 371.173C133.487 370.836 132.919 370.667 132.244 370.667C131.54 370.667 130.953 370.845 130.484 371.202C130.019 371.558 129.67 372.037 129.435 372.638C129.205 373.238 129.09 373.905 129.09 374.637C129.09 375.387 129.207 376.051 129.442 376.629C129.681 377.201 130.033 377.652 130.498 377.98C130.967 378.304 131.549 378.466 132.244 378.466ZM146.828 375.707V369.315H148.489V380.127H146.828V378.297H146.716C146.462 378.846 146.068 379.313 145.533 379.698C144.998 380.078 144.322 380.268 143.506 380.268C142.83 380.268 142.229 380.12 141.704 379.824C141.178 379.524 140.765 379.073 140.465 378.473C140.165 377.867 140.015 377.105 140.015 376.185V369.315H141.676V376.073C141.676 376.861 141.896 377.49 142.337 377.959C142.783 378.428 143.351 378.663 144.041 378.663C144.454 378.663 144.874 378.557 145.301 378.346C145.732 378.135 146.094 377.811 146.385 377.375C146.68 376.938 146.828 376.382 146.828 375.707ZM156.065 380.352C155.023 380.352 154.125 380.122 153.369 379.662C152.618 379.198 152.039 378.55 151.63 377.72C151.227 376.884 151.025 375.913 151.025 374.806C151.025 373.698 151.227 372.722 151.63 371.877C152.039 371.028 152.607 370.366 153.334 369.892C154.066 369.414 154.92 369.174 155.896 369.174C156.459 369.174 157.015 369.268 157.564 369.456C158.113 369.644 158.613 369.949 159.064 370.371C159.514 370.789 159.873 371.342 160.141 372.032C160.408 372.722 160.542 373.571 160.542 374.58V375.284H152.208V373.848H158.852C158.852 373.238 158.73 372.694 158.486 372.215C158.247 371.737 157.905 371.359 157.459 371.082C157.018 370.805 156.497 370.667 155.896 370.667C155.234 370.667 154.662 370.831 154.179 371.159C153.7 371.483 153.332 371.906 153.073 372.426C152.815 372.947 152.686 373.506 152.686 374.102V375.059C152.686 375.875 152.827 376.568 153.109 377.135C153.395 377.699 153.791 378.128 154.298 378.424C154.805 378.714 155.394 378.86 156.065 378.86C156.501 378.86 156.896 378.799 157.248 378.677C157.604 378.55 157.912 378.363 158.17 378.114C158.428 377.86 158.627 377.546 158.768 377.171L160.373 377.621C160.204 378.165 159.92 378.644 159.521 379.057C159.122 379.465 158.63 379.784 158.043 380.014C157.456 380.24 156.797 380.352 156.065 380.352ZM173.177 380.352C172.135 380.352 171.236 380.122 170.481 379.662C169.73 379.198 169.15 378.55 168.742 377.72C168.339 376.884 168.137 375.913 168.137 374.806C168.137 373.698 168.339 372.722 168.742 371.877C169.15 371.028 169.718 370.366 170.445 369.892C171.178 369.414 172.032 369.174 173.008 369.174C173.571 369.174 174.127 369.268 174.676 369.456C175.225 369.644 175.725 369.949 176.175 370.371C176.626 370.789 176.985 371.342 177.252 372.032C177.52 372.722 177.653 373.571 177.653 374.58V375.284H169.319V373.848H175.964C175.964 373.238 175.842 372.694 175.598 372.215C175.359 371.737 175.016 371.359 174.57 371.082C174.129 370.805 173.608 370.667 173.008 370.667C172.346 370.667 171.774 370.831 171.29 371.159C170.812 371.483 170.443 371.906 170.185 372.426C169.927 372.947 169.798 373.506 169.798 374.102V375.059C169.798 375.875 169.939 376.568 170.22 377.135C170.506 377.699 170.903 378.128 171.41 378.424C171.917 378.714 172.506 378.86 173.177 378.86C173.613 378.86 174.007 378.799 174.359 378.677C174.716 378.55 175.023 378.363 175.281 378.114C175.539 377.86 175.739 377.546 175.88 377.171L177.484 377.621C177.315 378.165 177.032 378.644 176.633 379.057C176.234 379.465 175.741 379.784 175.155 380.014C174.568 380.24 173.909 380.352 173.177 380.352ZM184.544 384.407C183.742 384.407 183.052 384.303 182.475 384.097C181.898 383.895 181.417 383.628 181.032 383.294C180.652 382.966 180.349 382.614 180.124 382.239L181.447 381.309C181.597 381.507 181.788 381.732 182.017 381.985C182.247 382.243 182.562 382.466 182.961 382.654C183.364 382.846 183.892 382.943 184.544 382.943C185.417 382.943 186.138 382.731 186.705 382.309C187.273 381.887 187.557 381.225 187.557 380.324V378.128H187.416C187.294 378.325 187.121 378.569 186.895 378.86C186.675 379.146 186.356 379.402 185.938 379.627C185.525 379.848 184.967 379.958 184.263 379.958C183.39 379.958 182.606 379.752 181.912 379.339C181.222 378.926 180.675 378.325 180.272 377.537C179.873 376.748 179.673 375.791 179.673 374.665C179.673 373.557 179.868 372.593 180.258 371.772C180.647 370.946 181.189 370.308 181.884 369.857C182.578 369.402 183.381 369.174 184.291 369.174C184.995 369.174 185.553 369.292 185.966 369.526C186.384 369.756 186.703 370.019 186.924 370.315C187.149 370.606 187.322 370.845 187.444 371.033H187.613V369.315H189.218V380.437C189.218 381.366 189.007 382.121 188.585 382.703C188.167 383.29 187.604 383.719 186.895 383.991C186.192 384.268 185.408 384.407 184.544 384.407ZM184.488 378.466C185.154 378.466 185.718 378.313 186.177 378.008C186.637 377.703 186.987 377.264 187.226 376.692C187.466 376.119 187.585 375.434 187.585 374.637C187.585 373.858 187.468 373.17 187.233 372.574C186.999 371.978 186.651 371.511 186.192 371.173C185.732 370.836 185.164 370.667 184.488 370.667C183.784 370.667 183.198 370.845 182.728 371.202C182.264 371.558 181.914 372.037 181.68 372.638C181.45 373.238 181.335 373.905 181.335 374.637C181.335 375.387 181.452 376.051 181.687 376.629C181.926 377.201 182.278 377.652 182.742 377.98C183.212 378.304 183.794 378.466 184.488 378.466ZM196.792 380.352C195.75 380.352 194.852 380.122 194.096 379.662C193.345 379.198 192.766 378.55 192.358 377.72C191.954 376.884 191.752 375.913 191.752 374.806C191.752 373.698 191.954 372.722 192.358 371.877C192.766 371.028 193.334 370.366 194.061 369.892C194.793 369.414 195.647 369.174 196.623 369.174C197.186 369.174 197.742 369.268 198.291 369.456C198.84 369.644 199.34 369.949 199.791 370.371C200.241 370.789 200.6 371.342 200.868 372.032C201.135 372.722 201.269 373.571 201.269 374.58V375.284H192.935V373.848H199.58C199.58 373.238 199.458 372.694 199.214 372.215C198.974 371.737 198.632 371.359 198.186 371.082C197.745 370.805 197.224 370.667 196.623 370.667C195.962 370.667 195.389 370.831 194.906 371.159C194.427 371.483 194.059 371.906 193.801 372.426C193.542 372.947 193.413 373.506 193.413 374.102V375.059C193.413 375.875 193.554 376.568 193.836 377.135C194.122 377.699 194.519 378.128 195.025 378.424C195.532 378.714 196.121 378.86 196.792 378.86C197.229 378.86 197.623 378.799 197.975 378.677C198.331 378.55 198.639 378.363 198.897 378.114C199.155 377.86 199.354 377.546 199.495 377.171L201.1 377.621C200.931 378.165 200.647 378.644 200.248 379.057C199.849 379.465 199.357 379.784 198.77 380.014C198.183 380.24 197.524 380.352 196.792 380.352ZM208.498 369.315V370.723H202.895V369.315H208.498ZM204.528 366.725H206.189V377.03C206.189 377.499 206.257 377.851 206.393 378.086C206.534 378.316 206.712 378.47 206.928 378.55C207.149 378.625 207.381 378.663 207.625 378.663C207.808 378.663 207.958 378.653 208.075 378.635C208.193 378.611 208.287 378.592 208.357 378.578L208.695 380.071C208.582 380.113 208.425 380.155 208.223 380.197C208.022 380.244 207.766 380.268 207.456 380.268C206.987 380.268 206.527 380.167 206.076 379.965C205.631 379.763 205.26 379.456 204.964 379.043C204.673 378.63 204.528 378.109 204.528 377.48V366.725ZM224.23 371.737L222.738 372.159C222.644 371.91 222.505 371.669 222.322 371.434C222.144 371.195 221.9 370.997 221.59 370.843C221.28 370.688 220.884 370.61 220.401 370.61C219.739 370.61 219.188 370.763 218.746 371.068C218.31 371.368 218.092 371.751 218.092 372.215C218.092 372.628 218.242 372.954 218.542 373.194C218.843 373.433 219.312 373.632 219.95 373.792L221.555 374.186C222.522 374.421 223.242 374.78 223.716 375.263C224.19 375.742 224.427 376.359 224.427 377.114C224.427 377.734 224.249 378.287 223.892 378.775C223.54 379.264 223.047 379.648 222.414 379.93C221.78 380.211 221.043 380.352 220.204 380.352C219.101 380.352 218.188 380.113 217.465 379.634C216.743 379.156 216.285 378.456 216.093 377.537L217.67 377.142C217.82 377.724 218.104 378.161 218.521 378.452C218.944 378.743 219.495 378.888 220.175 378.888C220.95 378.888 221.564 378.724 222.02 378.395C222.479 378.062 222.709 377.663 222.709 377.199C222.709 376.823 222.578 376.509 222.315 376.256C222.052 375.997 221.649 375.805 221.105 375.678L219.303 375.256C218.312 375.021 217.585 374.658 217.12 374.165C216.661 373.668 216.431 373.046 216.431 372.3C216.431 371.69 216.602 371.15 216.945 370.681C217.292 370.211 217.763 369.843 218.359 369.576C218.96 369.308 219.64 369.174 220.401 369.174C221.471 369.174 222.31 369.409 222.921 369.878C223.535 370.348 223.972 370.967 224.23 371.737ZM231.32 380.352C230.344 380.352 229.487 380.12 228.751 379.655C228.018 379.191 227.446 378.541 227.033 377.706C226.625 376.87 226.421 375.894 226.421 374.777C226.421 373.651 226.625 372.668 227.033 371.828C227.446 370.988 228.018 370.336 228.751 369.871C229.487 369.407 230.344 369.174 231.32 369.174C232.296 369.174 233.15 369.407 233.882 369.871C234.619 370.336 235.191 370.988 235.599 371.828C236.012 372.668 236.219 373.651 236.219 374.777C236.219 375.894 236.012 376.87 235.599 377.706C235.191 378.541 234.619 379.191 233.882 379.655C233.15 380.12 232.296 380.352 231.32 380.352ZM231.32 378.86C232.061 378.86 232.671 378.67 233.15 378.29C233.628 377.91 233.983 377.41 234.213 376.791C234.443 376.171 234.558 375.5 234.558 374.777C234.558 374.055 234.443 373.381 234.213 372.757C233.983 372.133 233.628 371.629 233.15 371.244C232.671 370.859 232.061 370.667 231.32 370.667C230.578 370.667 229.968 370.859 229.49 371.244C229.011 371.629 228.657 372.133 228.427 372.757C228.197 373.381 228.082 374.055 228.082 374.777C228.082 375.5 228.197 376.171 228.427 376.791C228.657 377.41 229.011 377.91 229.49 378.29C229.968 378.67 230.578 378.86 231.32 378.86ZM242.837 380.352C241.936 380.352 241.141 380.125 240.451 379.669C239.761 379.21 239.221 378.562 238.832 377.727C238.443 376.887 238.248 375.894 238.248 374.749C238.248 373.614 238.443 372.628 238.832 371.793C239.221 370.958 239.763 370.312 240.458 369.857C241.152 369.402 241.955 369.174 242.865 369.174C243.569 369.174 244.125 369.292 244.534 369.526C244.946 369.756 245.261 370.019 245.477 370.315C245.697 370.606 245.869 370.845 245.991 371.033H246.131V365.711H247.793V380.127H246.188V378.466H245.991C245.869 378.663 245.695 378.912 245.47 379.212C245.244 379.508 244.923 379.773 244.505 380.007C244.088 380.237 243.532 380.352 242.837 380.352ZM243.062 378.86C243.729 378.86 244.292 378.686 244.752 378.339C245.212 377.987 245.561 377.501 245.801 376.882C246.04 376.258 246.159 375.538 246.159 374.721C246.159 373.914 246.042 373.208 245.808 372.602C245.573 371.992 245.226 371.518 244.766 371.181C244.306 370.838 243.738 370.667 243.062 370.667C242.358 370.667 241.772 370.847 241.303 371.209C240.838 371.565 240.488 372.051 240.254 372.666C240.024 373.276 239.909 373.961 239.909 374.721C239.909 375.491 240.026 376.19 240.261 376.819C240.5 377.443 240.852 377.94 241.317 378.311C241.786 378.677 242.368 378.86 243.062 378.86ZM254.247 380.38C253.562 380.38 252.94 380.251 252.382 379.993C251.823 379.73 251.38 379.353 251.052 378.86C250.723 378.363 250.559 377.762 250.559 377.058C250.559 376.439 250.681 375.936 250.925 375.552C251.169 375.162 251.495 374.857 251.903 374.637C252.311 374.416 252.762 374.252 253.255 374.144C253.752 374.031 254.252 373.942 254.754 373.876C255.411 373.792 255.944 373.729 256.352 373.686C256.765 373.639 257.065 373.562 257.253 373.454C257.445 373.346 257.541 373.158 257.541 372.891V372.835C257.541 372.14 257.351 371.6 256.971 371.216C256.596 370.831 256.026 370.639 255.261 370.639C254.468 370.639 253.846 370.812 253.395 371.159C252.945 371.507 252.628 371.877 252.445 372.272L250.869 371.708C251.15 371.051 251.525 370.54 251.995 370.174C252.469 369.803 252.985 369.545 253.543 369.4C254.106 369.249 254.66 369.174 255.204 369.174C255.552 369.174 255.951 369.217 256.401 369.301C256.856 369.381 257.295 369.547 257.717 369.801C258.144 370.054 258.499 370.437 258.78 370.948C259.062 371.46 259.203 372.145 259.203 373.004V380.127H257.541V378.663H257.457C257.344 378.897 257.157 379.149 256.894 379.416C256.631 379.684 256.281 379.911 255.845 380.099C255.409 380.287 254.876 380.38 254.247 380.38ZM254.501 378.888C255.158 378.888 255.711 378.759 256.162 378.501C256.617 378.243 256.96 377.91 257.189 377.501C257.424 377.093 257.541 376.664 257.541 376.213V374.693C257.471 374.777 257.316 374.855 257.077 374.925C256.842 374.991 256.57 375.05 256.26 375.101C255.955 375.148 255.657 375.19 255.366 375.228C255.08 375.261 254.848 375.289 254.67 375.312C254.238 375.369 253.834 375.46 253.459 375.587C253.088 375.709 252.788 375.894 252.558 376.143C252.333 376.387 252.22 376.72 252.22 377.142C252.22 377.72 252.433 378.156 252.861 378.452C253.292 378.743 253.839 378.888 254.501 378.888ZM263.896 365.711V380.127H262.235V365.711H263.896ZM271.471 380.352C270.43 380.352 269.531 380.122 268.775 379.662C268.025 379.198 267.445 378.55 267.037 377.72C266.633 376.884 266.432 375.913 266.432 374.806C266.432 373.698 266.633 372.722 267.037 371.877C267.445 371.028 268.013 370.366 268.74 369.892C269.472 369.414 270.326 369.174 271.302 369.174C271.866 369.174 272.422 369.268 272.971 369.456C273.52 369.644 274.019 369.949 274.47 370.371C274.92 370.789 275.279 371.342 275.547 372.032C275.814 372.722 275.948 373.571 275.948 374.58V375.284H267.614V373.848H274.259C274.259 373.238 274.137 372.694 273.893 372.215C273.653 371.737 273.311 371.359 272.865 371.082C272.424 370.805 271.903 370.667 271.302 370.667C270.641 370.667 270.068 370.831 269.585 371.159C269.106 371.483 268.738 371.906 268.48 372.426C268.222 372.947 268.093 373.506 268.093 374.102V375.059C268.093 375.875 268.234 376.568 268.515 377.135C268.801 377.699 269.198 378.128 269.705 378.424C270.211 378.714 270.8 378.86 271.471 378.86C271.908 378.86 272.302 378.799 272.654 378.677C273.011 378.55 273.318 378.363 273.576 378.114C273.834 377.86 274.034 377.546 274.174 377.171L275.779 377.621C275.61 378.165 275.326 378.644 274.928 379.057C274.529 379.465 274.036 379.784 273.449 380.014C272.863 380.24 272.203 380.352 271.471 380.352ZM286.133 371.737L284.641 372.159C284.547 371.91 284.409 371.669 284.226 371.434C284.048 371.195 283.804 370.997 283.494 370.843C283.184 370.688 282.788 370.61 282.304 370.61C281.643 370.61 281.091 370.763 280.65 371.068C280.214 371.368 279.996 371.751 279.996 372.215C279.996 372.628 280.146 372.954 280.446 373.194C280.746 373.433 281.216 373.632 281.854 373.792L283.459 374.186C284.425 374.421 285.146 374.78 285.62 375.263C286.094 375.742 286.331 376.359 286.331 377.114C286.331 377.734 286.152 378.287 285.796 378.775C285.444 379.264 284.951 379.648 284.317 379.93C283.684 380.211 282.947 380.352 282.107 380.352C281.004 380.352 280.092 380.113 279.369 379.634C278.646 379.156 278.189 378.456 277.996 377.537L279.573 377.142C279.723 377.724 280.007 378.161 280.425 378.452C280.847 378.743 281.399 378.888 282.079 378.888C282.853 378.888 283.468 378.724 283.923 378.395C284.383 378.062 284.613 377.663 284.613 377.199C284.613 376.823 284.482 376.509 284.219 376.256C283.956 375.997 283.552 375.805 283.008 375.678L281.206 375.256C280.216 375.021 279.489 374.658 279.024 374.165C278.564 373.668 278.334 373.046 278.334 372.3C278.334 371.69 278.506 371.15 278.848 370.681C279.195 370.211 279.667 369.843 280.263 369.576C280.864 369.308 281.544 369.174 282.304 369.174C283.374 369.174 284.214 369.409 284.824 369.878C285.439 370.348 285.875 370.967 286.133 371.737ZM294.406 380.127V369.315H296.011V371.005H296.152C296.377 370.427 296.74 369.979 297.243 369.66C297.745 369.336 298.348 369.174 299.052 369.174C299.765 369.174 300.358 369.336 300.832 369.66C301.311 369.979 301.684 370.427 301.952 371.005H302.064C302.341 370.446 302.756 370.003 303.31 369.674C303.864 369.341 304.528 369.174 305.302 369.174C306.269 369.174 307.06 369.477 307.674 370.082C308.289 370.683 308.596 371.619 308.596 372.891V380.127H306.935V372.891C306.935 372.093 306.717 371.523 306.281 371.181C305.844 370.838 305.33 370.667 304.739 370.667C303.979 370.667 303.39 370.897 302.972 371.356C302.555 371.812 302.346 372.389 302.346 373.088V380.127H300.656V372.722C300.656 372.107 300.457 371.612 300.058 371.237C299.659 370.857 299.145 370.667 298.517 370.667C298.085 370.667 297.681 370.782 297.306 371.012C296.935 371.242 296.635 371.561 296.405 371.969C296.18 372.372 296.067 372.839 296.067 373.37V380.127H294.406ZM314.815 380.38C314.13 380.38 313.508 380.251 312.95 379.993C312.391 379.73 311.948 379.353 311.62 378.86C311.291 378.363 311.127 377.762 311.127 377.058C311.127 376.439 311.249 375.936 311.493 375.552C311.737 375.162 312.063 374.857 312.471 374.637C312.88 374.416 313.33 374.252 313.823 374.144C314.32 374.031 314.82 373.942 315.322 373.876C315.979 373.792 316.512 373.729 316.92 373.686C317.333 373.639 317.633 373.562 317.821 373.454C318.013 373.346 318.109 373.158 318.109 372.891V372.835C318.109 372.14 317.919 371.6 317.539 371.216C317.164 370.831 316.594 370.639 315.829 370.639C315.036 370.639 314.414 370.812 313.964 371.159C313.513 371.507 313.196 371.877 313.013 372.272L311.437 371.708C311.718 371.051 312.094 370.54 312.563 370.174C313.037 369.803 313.553 369.545 314.111 369.4C314.674 369.249 315.228 369.174 315.773 369.174C316.12 369.174 316.519 369.217 316.969 369.301C317.424 369.381 317.863 369.547 318.285 369.801C318.712 370.054 319.067 370.437 319.348 370.948C319.63 371.46 319.771 372.145 319.771 373.004V380.127H318.109V378.663H318.025C317.912 378.897 317.725 379.149 317.462 379.416C317.199 379.684 316.849 379.911 316.413 380.099C315.977 380.287 315.444 380.38 314.815 380.38ZM315.069 378.888C315.726 378.888 316.279 378.759 316.73 378.501C317.185 378.243 317.528 377.91 317.757 377.501C317.992 377.093 318.109 376.664 318.109 376.213V374.693C318.039 374.777 317.884 374.855 317.645 374.925C317.41 374.991 317.138 375.05 316.828 375.101C316.523 375.148 316.225 375.19 315.934 375.228C315.648 375.261 315.416 375.289 315.238 375.312C314.806 375.369 314.402 375.46 314.027 375.587C313.656 375.709 313.356 375.894 313.126 376.143C312.901 376.387 312.788 376.72 312.788 377.142C312.788 377.72 313.002 378.156 313.429 378.452C313.86 378.743 314.407 378.888 315.069 378.888ZM327.505 369.315V370.723H321.902V369.315H327.505ZM323.535 366.725H325.196V377.03C325.196 377.499 325.264 377.851 325.4 378.086C325.541 378.316 325.719 378.47 325.935 378.55C326.155 378.625 326.388 378.663 326.632 378.663C326.815 378.663 326.965 378.653 327.082 378.635C327.2 378.611 327.293 378.592 327.364 378.578L327.702 380.071C327.589 380.113 327.432 380.155 327.23 380.197C327.028 380.244 326.773 380.268 326.463 380.268C325.994 380.268 325.534 380.167 325.083 379.965C324.637 379.763 324.267 379.456 323.971 379.043C323.68 378.63 323.535 378.109 323.535 377.48V366.725ZM334.705 369.315V370.723H329.102V369.315H334.705ZM330.735 366.725H332.397V377.03C332.397 377.499 332.465 377.851 332.601 378.086C332.742 378.316 332.92 378.47 333.136 378.55C333.356 378.625 333.589 378.663 333.833 378.663C334.016 378.663 334.166 378.653 334.283 378.635C334.4 378.611 334.494 378.592 334.565 378.578L334.903 380.071C334.79 380.113 334.633 380.155 334.431 380.197C334.229 380.244 333.973 380.268 333.664 380.268C333.194 380.268 332.735 380.167 332.284 379.965C331.838 379.763 331.468 379.456 331.172 379.043C330.881 378.63 330.735 378.109 330.735 377.48V366.725ZM337.204 380.127V369.315H338.865V380.127H337.204ZM338.049 367.513C337.725 367.513 337.446 367.403 337.211 367.182C336.981 366.962 336.866 366.697 336.866 366.387C336.866 366.077 336.981 365.812 337.211 365.592C337.446 365.371 337.725 365.261 338.049 365.261C338.373 365.261 338.65 365.371 338.88 365.592C339.114 365.812 339.231 366.077 339.231 366.387C339.231 366.697 339.114 366.962 338.88 367.182C338.65 367.403 338.373 367.513 338.049 367.513ZM349.566 371.737L348.074 372.159C347.98 371.91 347.842 371.669 347.659 371.434C347.48 371.195 347.236 370.997 346.927 370.843C346.617 370.688 346.22 370.61 345.737 370.61C345.075 370.61 344.524 370.763 344.083 371.068C343.647 371.368 343.428 371.751 343.428 372.215C343.428 372.628 343.579 372.954 343.879 373.194C344.179 373.433 344.648 373.632 345.287 373.792L346.892 374.186C347.858 374.421 348.579 374.78 349.052 375.263C349.526 375.742 349.763 376.359 349.763 377.114C349.763 377.734 349.585 378.287 349.228 378.775C348.876 379.264 348.384 379.648 347.75 379.93C347.117 380.211 346.38 380.352 345.54 380.352C344.437 380.352 343.525 380.113 342.802 379.634C342.079 379.156 341.622 378.456 341.429 377.537L343.006 377.142C343.156 377.724 343.44 378.161 343.858 378.452C344.28 378.743 344.831 378.888 345.512 378.888C346.286 378.888 346.901 378.724 347.356 378.395C347.816 378.062 348.046 377.663 348.046 377.199C348.046 376.823 347.915 376.509 347.652 376.256C347.389 375.997 346.985 375.805 346.441 375.678L344.639 375.256C343.649 375.021 342.922 374.658 342.457 374.165C341.997 373.668 341.767 373.046 341.767 372.3C341.767 371.69 341.938 371.15 342.281 370.681C342.628 370.211 343.1 369.843 343.696 369.576C344.297 369.308 344.977 369.174 345.737 369.174C346.807 369.174 347.647 369.409 348.257 369.878C348.872 370.348 349.308 370.967 349.566 371.737ZM361.02 380.38C360.335 380.38 359.713 380.251 359.155 379.993C358.597 379.73 358.153 379.353 357.825 378.86C357.496 378.363 357.332 377.762 357.332 377.058C357.332 376.439 357.454 375.936 357.698 375.552C357.942 375.162 358.268 374.857 358.676 374.637C359.085 374.416 359.535 374.252 360.028 374.144C360.525 374.031 361.025 373.942 361.527 373.876C362.184 373.792 362.717 373.729 363.125 373.686C363.538 373.639 363.838 373.562 364.026 373.454C364.218 373.346 364.315 373.158 364.315 372.891V372.835C364.315 372.14 364.125 371.6 363.744 371.216C363.369 370.831 362.799 370.639 362.034 370.639C361.241 370.639 360.619 370.812 360.169 371.159C359.718 371.507 359.401 371.877 359.218 372.272L357.642 371.708C357.923 371.051 358.299 370.54 358.768 370.174C359.242 369.803 359.758 369.545 360.316 369.4C360.88 369.249 361.433 369.174 361.978 369.174C362.325 369.174 362.724 369.217 363.174 369.301C363.629 369.381 364.068 369.547 364.491 369.801C364.918 370.054 365.272 370.437 365.553 370.948C365.835 371.46 365.976 372.145 365.976 373.004V380.127H364.315V378.663H364.23C364.117 378.897 363.93 379.149 363.667 379.416C363.404 379.684 363.055 379.911 362.618 380.099C362.182 380.287 361.649 380.38 361.02 380.38ZM361.274 378.888C361.931 378.888 362.484 378.759 362.935 378.501C363.39 378.243 363.733 377.91 363.963 377.501C364.197 377.093 364.315 376.664 364.315 376.213V374.693C364.244 374.777 364.089 374.855 363.85 374.925C363.615 374.991 363.343 375.05 363.033 375.101C362.728 375.148 362.43 375.19 362.14 375.228C361.853 375.261 361.621 375.289 361.443 375.312C361.011 375.369 360.607 375.46 360.232 375.587C359.861 375.709 359.561 375.894 359.331 376.143C359.106 376.387 358.993 376.72 358.993 377.142C358.993 377.72 359.207 378.156 359.634 378.452C360.065 378.743 360.612 378.888 361.274 378.888ZM373.71 369.315V370.723H368.107V369.315H373.71ZM369.74 366.725H371.401V377.03C371.401 377.499 371.469 377.851 371.605 378.086C371.746 378.316 371.924 378.47 372.14 378.55C372.361 378.625 372.593 378.663 372.837 378.663C373.02 378.663 373.17 378.653 373.287 378.635C373.405 378.611 373.499 378.592 373.569 378.578L373.907 380.071C373.794 380.113 373.637 380.155 373.435 380.197C373.233 380.244 372.978 380.268 372.668 380.268C372.199 380.268 371.739 380.167 371.288 379.965C370.843 379.763 370.472 379.456 370.176 379.043C369.885 378.63 369.74 378.109 369.74 377.48V366.725ZM389.442 371.737L387.949 372.159C387.856 371.91 387.717 371.669 387.534 371.434C387.356 371.195 387.112 370.997 386.802 370.843C386.492 370.688 386.096 370.61 385.613 370.61C384.951 370.61 384.399 370.763 383.958 371.068C383.522 371.368 383.304 371.751 383.304 372.215C383.304 372.628 383.454 372.954 383.754 373.194C384.055 373.433 384.524 373.632 385.162 373.792L386.767 374.186C387.734 374.421 388.454 374.78 388.928 375.263C389.402 375.742 389.639 376.359 389.639 377.114C389.639 377.734 389.46 378.287 389.104 378.775C388.752 379.264 388.259 379.648 387.626 379.93C386.992 380.211 386.255 380.352 385.415 380.352C384.313 380.352 383.4 380.113 382.677 379.634C381.955 379.156 381.497 378.456 381.305 377.537L382.881 377.142C383.032 377.724 383.315 378.161 383.733 378.452C384.155 378.743 384.707 378.888 385.387 378.888C386.162 378.888 386.776 378.724 387.231 378.395C387.691 378.062 387.921 377.663 387.921 377.199C387.921 376.823 387.79 376.509 387.527 376.256C387.264 375.997 386.861 375.805 386.316 375.678L384.514 375.256C383.524 375.021 382.797 374.658 382.332 374.165C381.873 373.668 381.643 373.046 381.643 372.3C381.643 371.69 381.814 371.15 382.156 370.681C382.504 370.211 382.975 369.843 383.571 369.576C384.172 369.308 384.852 369.174 385.613 369.174C386.682 369.174 387.522 369.409 388.132 369.878C388.747 370.348 389.184 370.967 389.442 371.737ZM396.672 380.352C395.631 380.352 394.732 380.122 393.977 379.662C393.226 379.198 392.646 378.55 392.238 377.72C391.834 376.884 391.633 375.913 391.633 374.806C391.633 373.698 391.834 372.722 392.238 371.877C392.646 371.028 393.214 370.366 393.941 369.892C394.673 369.414 395.527 369.174 396.503 369.174C397.067 369.174 397.623 369.268 398.172 369.456C398.721 369.644 399.221 369.949 399.671 370.371C400.121 370.789 400.48 371.342 400.748 372.032C401.015 372.722 401.149 373.571 401.149 374.58V375.284H392.815V373.848H399.46C399.46 373.238 399.338 372.694 399.094 372.215C398.854 371.737 398.512 371.359 398.066 371.082C397.625 370.805 397.104 370.667 396.503 370.667C395.842 370.667 395.269 370.831 394.786 371.159C394.307 371.483 393.939 371.906 393.681 372.426C393.423 372.947 393.294 373.506 393.294 374.102V375.059C393.294 375.875 393.435 376.568 393.716 377.135C394.002 377.699 394.399 378.128 394.906 378.424C395.412 378.714 396.001 378.86 396.672 378.86C397.109 378.86 397.503 378.799 397.855 378.677C398.212 378.55 398.519 378.363 398.777 378.114C399.035 377.86 399.235 377.546 399.375 377.171L400.98 377.621C400.811 378.165 400.527 378.644 400.129 379.057C399.73 379.465 399.237 379.784 398.65 380.014C398.064 380.24 397.404 380.352 396.672 380.352ZM407.759 380.352C406.858 380.352 406.062 380.125 405.372 379.669C404.683 379.21 404.143 378.562 403.754 377.727C403.364 376.887 403.169 375.894 403.169 374.749C403.169 373.614 403.364 372.628 403.754 371.793C404.143 370.958 404.685 370.312 405.38 369.857C406.074 369.402 406.876 369.174 407.787 369.174C408.491 369.174 409.047 369.292 409.455 369.526C409.868 369.756 410.182 370.019 410.398 370.315C410.619 370.606 410.79 370.845 410.912 371.033H411.053V365.711H412.714V380.127H411.109V378.466H410.912C410.79 378.663 410.616 378.912 410.391 379.212C410.166 379.508 409.845 379.773 409.427 380.007C409.009 380.237 408.453 380.352 407.759 380.352ZM407.984 378.86C408.65 378.86 409.213 378.686 409.673 378.339C410.133 377.987 410.483 377.501 410.722 376.882C410.961 376.258 411.081 375.538 411.081 374.721C411.081 373.914 410.964 373.208 410.729 372.602C410.494 371.992 410.147 371.518 409.687 371.181C409.227 370.838 408.66 370.667 407.984 370.667C407.28 370.667 406.693 370.847 406.224 371.209C405.76 371.565 405.41 372.051 405.175 372.666C404.945 373.276 404.83 373.961 404.83 374.721C404.83 375.491 404.948 376.19 405.182 376.819C405.422 377.443 405.774 377.94 406.238 378.311C406.708 378.677 407.289 378.86 407.984 378.86ZM421.562 380.127V369.315H423.167V371.005H423.308C423.533 370.427 423.897 369.979 424.399 369.66C424.901 369.336 425.504 369.174 426.208 369.174C426.921 369.174 427.515 369.336 427.988 369.66C428.467 369.979 428.84 370.427 429.108 371.005H429.22C429.497 370.446 429.912 370.003 430.466 369.674C431.02 369.341 431.684 369.174 432.458 369.174C433.425 369.174 434.216 369.477 434.83 370.082C435.445 370.683 435.752 371.619 435.752 372.891V380.127H434.091V372.891C434.091 372.093 433.873 371.523 433.437 371.181C433 370.838 432.486 370.667 431.895 370.667C431.135 370.667 430.546 370.897 430.128 371.356C429.711 371.812 429.502 372.389 429.502 373.088V380.127H427.813V372.722C427.813 372.107 427.613 371.612 427.214 371.237C426.815 370.857 426.301 370.667 425.673 370.667C425.241 370.667 424.837 370.782 424.462 371.012C424.091 371.242 423.791 371.561 423.561 371.969C423.336 372.372 423.223 372.839 423.223 373.37V380.127H421.562ZM441.971 380.38C441.286 380.38 440.664 380.251 440.106 379.993C439.548 379.73 439.104 379.353 438.776 378.86C438.447 378.363 438.283 377.762 438.283 377.058C438.283 376.439 438.405 375.936 438.649 375.552C438.893 375.162 439.219 374.857 439.627 374.637C440.036 374.416 440.486 374.252 440.979 374.144C441.476 374.031 441.976 373.942 442.478 373.876C443.135 373.792 443.668 373.729 444.076 373.686C444.489 373.639 444.789 373.562 444.977 373.454C445.169 373.346 445.265 373.158 445.265 372.891V372.835C445.265 372.14 445.075 371.6 444.695 371.216C444.32 370.831 443.75 370.639 442.985 370.639C442.192 370.639 441.57 370.812 441.12 371.159C440.669 371.507 440.352 371.877 440.169 372.272L438.593 371.708C438.874 371.051 439.25 370.54 439.719 370.174C440.193 369.803 440.709 369.545 441.267 369.4C441.83 369.249 442.384 369.174 442.929 369.174C443.276 369.174 443.675 369.217 444.125 369.301C444.58 369.381 445.019 369.547 445.441 369.801C445.868 370.054 446.223 370.437 446.504 370.948C446.786 371.46 446.927 372.145 446.927 373.004V380.127H445.265V378.663H445.181C445.068 378.897 444.881 379.149 444.618 379.416C444.355 379.684 444.006 379.911 443.569 380.099C443.133 380.287 442.6 380.38 441.971 380.38ZM442.225 378.888C442.882 378.888 443.435 378.759 443.886 378.501C444.341 378.243 444.684 377.91 444.914 377.501C445.148 377.093 445.265 376.664 445.265 376.213V374.693C445.195 374.777 445.04 374.855 444.801 374.925C444.566 374.991 444.294 375.05 443.984 375.101C443.679 375.148 443.381 375.19 443.09 375.228C442.804 375.261 442.572 375.289 442.394 375.312C441.962 375.369 441.558 375.46 441.183 375.587C440.812 375.709 440.512 375.894 440.282 376.143C440.057 376.387 439.944 376.72 439.944 377.142C439.944 377.72 440.158 378.156 440.585 378.452C441.016 378.743 441.563 378.888 442.225 378.888ZM451.62 365.711V380.127H449.959V365.711H451.62ZM459.195 380.352C458.154 380.352 457.255 380.122 456.5 379.662C455.749 379.198 455.169 378.55 454.761 377.72C454.357 376.884 454.156 375.913 454.156 374.806C454.156 373.698 454.357 372.722 454.761 371.877C455.169 371.028 455.737 370.366 456.464 369.892C457.196 369.414 458.05 369.174 459.027 369.174C459.59 369.174 460.146 369.268 460.695 369.456C461.244 369.644 461.744 369.949 462.194 370.371C462.645 370.789 463.004 371.342 463.271 372.032C463.538 372.722 463.672 373.571 463.672 374.58V375.284H455.338V373.848H461.983C461.983 373.238 461.861 372.694 461.617 372.215C461.378 371.737 461.035 371.359 460.589 371.082C460.148 370.805 459.627 370.667 459.027 370.667C458.365 370.667 457.792 370.831 457.309 371.159C456.83 371.483 456.462 371.906 456.204 372.426C455.946 372.947 455.817 373.506 455.817 374.102V375.059C455.817 375.875 455.958 376.568 456.239 377.135C456.525 377.699 456.922 378.128 457.429 378.424C457.936 378.714 458.524 378.86 459.195 378.86C459.632 378.86 460.026 378.799 460.378 378.677C460.735 378.55 461.042 378.363 461.3 378.114C461.558 377.86 461.758 377.546 461.898 377.171L463.503 377.621C463.334 378.165 463.05 378.644 462.652 379.057C462.253 379.465 461.76 379.784 461.173 380.014C460.587 380.24 459.928 380.352 459.195 380.352ZM473.858 371.737L472.365 372.159C472.271 371.91 472.133 371.669 471.95 371.434C471.772 371.195 471.528 370.997 471.218 370.843C470.908 370.688 470.512 370.61 470.028 370.61C469.367 370.61 468.815 370.763 468.374 371.068C467.938 371.368 467.72 371.751 467.72 372.215C467.72 372.628 467.87 372.954 468.17 373.194C468.47 373.433 468.94 373.632 469.578 373.792L471.183 374.186C472.149 374.421 472.87 374.78 473.344 375.263C473.818 375.742 474.055 376.359 474.055 377.114C474.055 377.734 473.876 378.287 473.52 378.775C473.168 379.264 472.675 379.648 472.042 379.93C471.408 380.211 470.671 380.352 469.831 380.352C468.729 380.352 467.816 380.113 467.093 379.634C466.371 379.156 465.913 378.456 465.721 377.537L467.297 377.142C467.447 377.724 467.731 378.161 468.149 378.452C468.571 378.743 469.123 378.888 469.803 378.888C470.577 378.888 471.192 378.724 471.647 378.395C472.107 378.062 472.337 377.663 472.337 377.199C472.337 376.823 472.206 376.509 471.943 376.256C471.68 375.997 471.277 375.805 470.732 375.678L468.93 375.256C467.94 375.021 467.213 374.658 466.748 374.165C466.288 373.668 466.058 373.046 466.058 372.3C466.058 371.69 466.23 371.15 466.572 370.681C466.92 370.211 467.391 369.843 467.987 369.576C468.588 369.308 469.268 369.174 470.028 369.174C471.098 369.174 471.938 369.409 472.548 369.878C473.163 370.348 473.599 370.967 473.858 371.737ZM483.369 375.707V369.315H485.03V380.127H483.369V378.297H483.256C483.003 378.846 482.609 379.313 482.074 379.698C481.539 380.078 480.863 380.268 480.046 380.268C479.371 380.268 478.77 380.12 478.245 379.824C477.719 379.524 477.306 379.073 477.006 378.473C476.705 377.867 476.555 377.105 476.555 376.185V369.315H478.216V376.073C478.216 376.861 478.437 377.49 478.878 377.959C479.324 378.428 479.892 378.663 480.581 378.663C480.994 378.663 481.414 378.557 481.841 378.346C482.273 378.135 482.634 377.811 482.925 377.375C483.221 376.938 483.369 376.382 483.369 375.707ZM491.254 380.38C490.569 380.38 489.947 380.251 489.389 379.993C488.83 379.73 488.387 379.353 488.059 378.86C487.73 378.363 487.566 377.762 487.566 377.058C487.566 376.439 487.688 375.936 487.932 375.552C488.176 375.162 488.502 374.857 488.91 374.637C489.318 374.416 489.769 374.252 490.262 374.144C490.759 374.031 491.259 373.942 491.761 373.876C492.418 373.792 492.951 373.729 493.359 373.686C493.772 373.639 494.072 373.562 494.26 373.454C494.452 373.346 494.548 373.158 494.548 372.891V372.835C494.548 372.14 494.358 371.6 493.978 371.216C493.603 370.831 493.033 370.639 492.268 370.639C491.475 370.639 490.853 370.812 490.402 371.159C489.952 371.507 489.635 371.877 489.452 372.272L487.875 371.708C488.157 371.051 488.532 370.54 489.002 370.174C489.476 369.803 489.992 369.545 490.55 369.4C491.113 369.249 491.667 369.174 492.211 369.174C492.559 369.174 492.958 369.217 493.408 369.301C493.863 369.381 494.302 369.547 494.724 369.801C495.151 370.054 495.506 370.437 495.787 370.948C496.069 371.46 496.21 372.145 496.21 373.004V380.127H494.548V378.663H494.464C494.351 378.897 494.164 379.149 493.901 379.416C493.638 379.684 493.288 379.911 492.852 380.099C492.416 380.287 491.883 380.38 491.254 380.38ZM491.508 378.888C492.165 378.888 492.718 378.759 493.169 378.501C493.624 378.243 493.966 377.91 494.196 377.501C494.431 377.093 494.548 376.664 494.548 376.213V374.693C494.478 374.777 494.323 374.855 494.084 374.925C493.849 374.991 493.577 375.05 493.267 375.101C492.962 375.148 492.664 375.19 492.373 375.228C492.087 375.261 491.855 375.289 491.677 375.312C491.245 375.369 490.841 375.46 490.466 375.587C490.095 375.709 489.795 375.894 489.565 376.143C489.34 376.387 489.227 376.72 489.227 377.142C489.227 377.72 489.44 378.156 489.868 378.452C490.299 378.743 490.846 378.888 491.508 378.888ZM503.324 380.352C502.423 380.352 501.628 380.125 500.938 379.669C500.248 379.21 499.709 378.562 499.319 377.727C498.93 376.887 498.735 375.894 498.735 374.749C498.735 373.614 498.93 372.628 499.319 371.793C499.709 370.958 500.251 370.312 500.945 369.857C501.64 369.402 502.442 369.174 503.352 369.174C504.056 369.174 504.612 369.292 505.021 369.526C505.433 369.756 505.748 370.019 505.964 370.315C506.184 370.606 506.356 370.845 506.478 371.033H506.618V365.711H508.28V380.127H506.675V378.466H506.478C506.356 378.663 506.182 378.912 505.957 379.212C505.731 379.508 505.41 379.773 504.992 380.007C504.575 380.237 504.019 380.352 503.324 380.352ZM503.549 378.86C504.216 378.86 504.779 378.686 505.239 378.339C505.699 377.987 506.048 377.501 506.288 376.882C506.527 376.258 506.647 375.538 506.647 374.721C506.647 373.914 506.529 373.208 506.295 372.602C506.06 371.992 505.713 371.518 505.253 371.181C504.793 370.838 504.225 370.667 503.549 370.667C502.846 370.667 502.259 370.847 501.79 371.209C501.325 371.565 500.976 372.051 500.741 372.666C500.511 373.276 500.396 373.961 500.396 374.721C500.396 375.491 500.513 376.19 500.748 376.819C500.987 377.443 501.339 377.94 501.804 378.311C502.273 378.677 502.855 378.86 503.549 378.86ZM514.734 380.38C514.049 380.38 513.427 380.251 512.869 379.993C512.31 379.73 511.867 379.353 511.539 378.86C511.21 378.363 511.046 377.762 511.046 377.058C511.046 376.439 511.168 375.936 511.412 375.552C511.656 375.162 511.982 374.857 512.39 374.637C512.799 374.416 513.249 374.252 513.742 374.144C514.239 374.031 514.739 373.942 515.241 373.876C515.898 373.792 516.431 373.729 516.839 373.686C517.252 373.639 517.552 373.562 517.74 373.454C517.932 373.346 518.028 373.158 518.028 372.891V372.835C518.028 372.14 517.838 371.6 517.458 371.216C517.083 370.831 516.513 370.639 515.748 370.639C514.955 370.639 514.333 370.812 513.883 371.159C513.432 371.507 513.115 371.877 512.932 372.272L511.356 371.708C511.637 371.051 512.013 370.54 512.482 370.174C512.956 369.803 513.472 369.545 514.03 369.4C514.593 369.249 515.147 369.174 515.692 369.174C516.039 369.174 516.438 369.217 516.888 369.301C517.343 369.381 517.782 369.547 518.204 369.801C518.631 370.054 518.986 370.437 519.267 370.948C519.549 371.46 519.69 372.145 519.69 373.004V380.127H518.028V378.663H517.944C517.831 378.897 517.644 379.149 517.381 379.416C517.118 379.684 516.768 379.911 516.332 380.099C515.896 380.287 515.363 380.38 514.734 380.38ZM514.988 378.888C515.645 378.888 516.198 378.759 516.649 378.501C517.104 378.243 517.447 377.91 517.676 377.501C517.911 377.093 518.028 376.664 518.028 376.213V374.693C517.958 374.777 517.803 374.855 517.564 374.925C517.329 374.991 517.057 375.05 516.747 375.101C516.442 375.148 516.144 375.19 515.853 375.228C515.567 375.261 515.335 375.289 515.157 375.312C514.725 375.369 514.321 375.46 513.946 375.587C513.575 375.709 513.275 375.894 513.045 376.143C512.82 376.387 512.707 376.72 512.707 377.142C512.707 377.72 512.921 378.156 513.348 378.452C513.779 378.743 514.326 378.888 514.988 378.888ZM523.932 380.24C523.585 380.24 523.287 380.115 523.038 379.867C522.79 379.618 522.665 379.32 522.665 378.973C522.665 378.625 522.79 378.327 523.038 378.079C523.287 377.83 523.585 377.706 523.932 377.706C524.28 377.706 524.578 377.83 524.826 378.079C525.075 378.327 525.199 378.625 525.199 378.973C525.199 379.203 525.141 379.414 525.023 379.606C524.911 379.798 524.758 379.953 524.566 380.071C524.378 380.183 524.167 380.24 523.932 380.24Z" fill="#070707"/>
<mask id="mask0_327_2408" style="mask-type:alpha" maskUnits="userSpaceOnUse" x="44" y="27" width="523" height="249">
<rect x="44.4531" y="27.8047" width="521.962" height="247.714" fill="#D9D9D9"/>
</mask>
<g mask="url(#mask0_327_2408)">
<path d="M536.502 286.804C533.524 346.964 506.887 403.494 462.419 444.025C417.95 484.556 359.27 505.789 299.217 503.078C239.164 500.367 182.628 473.933 141.977 429.559C101.326 385.185 79.8699 326.485 82.3036 266.3C84.7372 206.115 110.862 149.346 154.962 108.413C199.063 67.4802 257.548 45.7158 317.623 47.8817C377.698 50.0476 434.471 75.9675 475.522 119.97C516.572 163.973 538.558 222.477 536.668 282.681L495.865 281.396C497.415 232.003 479.377 184.005 445.699 147.904C412.02 111.803 365.442 90.5379 316.155 88.7609C266.869 86.9839 218.886 104.84 182.705 138.422C146.524 172.004 125.091 218.579 123.094 267.956C121.097 317.333 138.7 365.492 172.051 401.897C205.402 438.302 251.786 459.989 301.055 462.213C350.323 464.438 398.466 447.018 434.949 413.765C471.432 380.513 493.285 334.135 495.728 284.778L536.502 286.804Z" fill="#FF2424"/>
<path d="M536.781 275.521C536.781 326.306 519.844 375.634 488.661 415.669C457.478 455.704 413.837 484.149 364.672 496.485C315.507 508.822 263.638 504.342 217.305 483.758C170.972 463.174 132.833 427.665 108.947 382.874C85.0606 338.083 76.7975 286.579 85.4701 236.543C94.1428 186.508 119.254 140.811 156.814 106.714C194.374 72.6159 242.229 52.0727 292.775 48.3479C343.322 44.6231 393.661 57.9302 435.795 86.1551L399.874 139.994C369.718 119.794 333.691 110.27 297.516 112.936C261.34 115.601 227.091 130.304 200.21 154.707C173.328 179.111 155.356 211.815 149.15 247.625C142.943 283.435 148.856 320.296 165.952 352.353C183.047 384.409 210.343 409.822 243.503 424.554C276.663 439.286 313.785 442.492 348.972 433.663C384.158 424.834 415.392 404.476 437.709 375.823C460.026 347.171 472.148 311.867 472.148 275.521H536.781Z" fill="#27C136"/>
<path d="M536.781 275.521C536.781 315.523 526.268 354.82 506.299 389.458C486.33 424.097 457.61 452.855 423.028 472.841C388.446 492.827 349.22 503.335 309.298 503.308C269.376 503.282 230.165 492.722 195.609 472.69C161.053 452.659 132.371 423.862 112.449 389.197C92.5257 354.532 82.0645 315.222 82.1174 275.22C82.1702 235.218 92.7353 195.935 112.75 161.323C132.764 126.711 161.522 97.9911 196.131 78.0513L236.999 149.268C214.872 162.017 196.485 180.379 183.689 202.509C170.893 224.638 164.138 249.753 164.104 275.329C164.07 300.904 170.759 326.037 183.496 348.2C196.234 370.363 214.572 388.775 236.665 401.582C258.759 414.389 283.828 421.141 309.353 421.158C334.877 421.175 359.956 414.456 382.066 401.678C404.176 388.9 422.538 370.513 435.305 348.367C448.072 326.221 454.794 301.097 454.794 275.521H536.781Z" fill="#004D40"/>
<path d="M273.101 182.301V180.904H282.851V182.301H278.763V193.904H277.189V182.301H273.101ZM287.624 194.107C286.744 194.107 285.972 193.898 285.307 193.479C284.647 193.06 284.131 192.474 283.759 191.721C283.39 190.967 283.206 190.087 283.206 189.08C283.206 188.064 283.39 187.178 283.759 186.42C284.131 185.663 284.647 185.075 285.307 184.656C285.972 184.237 286.744 184.027 287.624 184.027C288.505 184.027 289.275 184.237 289.935 184.656C290.599 185.075 291.116 185.663 291.484 186.42C291.856 187.178 292.042 188.064 292.042 189.08C292.042 190.087 291.856 190.967 291.484 191.721C291.116 192.474 290.599 193.06 289.935 193.479C289.275 193.898 288.505 194.107 287.624 194.107ZM287.624 192.762C288.293 192.762 288.843 192.59 289.275 192.248C289.706 191.905 290.026 191.454 290.233 190.895C290.441 190.337 290.544 189.732 290.544 189.08C290.544 188.428 290.441 187.821 290.233 187.258C290.026 186.695 289.706 186.241 289.275 185.894C288.843 185.546 288.293 185.373 287.624 185.373C286.956 185.373 286.406 185.546 285.974 185.894C285.542 186.241 285.223 186.695 285.015 187.258C284.808 187.821 284.704 188.428 284.704 189.08C284.704 189.732 284.808 190.337 285.015 190.895C285.223 191.454 285.542 191.905 285.974 192.248C286.406 192.59 286.956 192.762 287.624 192.762ZM298.569 184.154V185.424H293.517V184.154H298.569ZM294.989 181.818H296.487V191.111C296.487 191.534 296.549 191.852 296.671 192.063C296.798 192.271 296.959 192.41 297.154 192.482C297.353 192.55 297.562 192.584 297.782 192.584C297.947 192.584 298.083 192.576 298.188 192.559C298.294 192.537 298.379 192.52 298.442 192.508L298.747 193.854C298.646 193.892 298.504 193.93 298.322 193.968C298.14 194.01 297.909 194.031 297.63 194.031C297.207 194.031 296.792 193.94 296.386 193.758C295.984 193.576 295.649 193.299 295.383 192.927C295.12 192.554 294.989 192.085 294.989 191.518V181.818ZM303.692 194.133C303.074 194.133 302.513 194.016 302.01 193.784C301.506 193.547 301.106 193.206 300.81 192.762C300.514 192.313 300.366 191.771 300.366 191.137C300.366 190.578 300.476 190.125 300.696 189.778C300.916 189.427 301.21 189.152 301.578 188.953C301.946 188.754 302.353 188.606 302.797 188.509C303.245 188.407 303.696 188.327 304.149 188.268C304.741 188.191 305.222 188.134 305.59 188.096C305.962 188.054 306.233 187.984 306.402 187.887C306.576 187.789 306.663 187.62 306.663 187.379V187.328C306.663 186.702 306.491 186.215 306.148 185.868C305.81 185.521 305.296 185.348 304.606 185.348C303.891 185.348 303.33 185.504 302.924 185.817C302.518 186.13 302.232 186.465 302.067 186.82L300.645 186.312C300.899 185.72 301.237 185.259 301.661 184.929C302.088 184.594 302.554 184.362 303.057 184.23C303.565 184.095 304.064 184.027 304.555 184.027C304.868 184.027 305.228 184.065 305.634 184.142C306.045 184.213 306.44 184.364 306.821 184.592C307.206 184.821 307.526 185.166 307.78 185.627C308.034 186.088 308.161 186.706 308.161 187.48V193.904H306.663V192.584H306.586C306.485 192.796 306.316 193.022 306.079 193.263C305.842 193.504 305.526 193.71 305.133 193.879C304.739 194.048 304.259 194.133 303.692 194.133ZM303.92 192.787C304.513 192.787 305.012 192.671 305.419 192.438C305.829 192.205 306.138 191.905 306.345 191.537C306.557 191.168 306.663 190.781 306.663 190.375V189.004C306.599 189.08 306.46 189.15 306.244 189.213C306.032 189.273 305.787 189.325 305.507 189.372C305.232 189.414 304.964 189.452 304.701 189.486C304.443 189.516 304.234 189.541 304.073 189.562C303.683 189.613 303.32 189.696 302.981 189.81C302.647 189.92 302.376 190.087 302.168 190.312C301.965 190.532 301.864 190.832 301.864 191.213C301.864 191.733 302.056 192.127 302.441 192.394C302.831 192.656 303.324 192.787 303.92 192.787ZM312.393 180.904V193.904H310.895V180.904H312.393ZM326.309 189.918V184.154H327.807V193.904H326.309V192.254H326.207C325.979 192.749 325.623 193.17 325.141 193.517C324.658 193.86 324.049 194.031 323.313 194.031C322.703 194.031 322.162 193.898 321.688 193.631C321.214 193.361 320.841 192.954 320.57 192.413C320.3 191.867 320.164 191.179 320.164 190.35V184.154H321.662V190.248C321.662 190.959 321.861 191.526 322.259 191.949C322.661 192.372 323.173 192.584 323.795 192.584C324.167 192.584 324.546 192.489 324.931 192.298C325.321 192.108 325.647 191.816 325.909 191.422C326.175 191.029 326.309 190.527 326.309 189.918ZM337.457 186.338L336.111 186.719C336.027 186.494 335.902 186.276 335.737 186.065C335.576 185.849 335.356 185.671 335.077 185.532C334.797 185.392 334.44 185.322 334.004 185.322C333.407 185.322 332.91 185.46 332.512 185.735C332.119 186.006 331.922 186.351 331.922 186.769C331.922 187.142 332.057 187.436 332.328 187.652C332.599 187.868 333.022 188.047 333.598 188.191L335.045 188.547C335.917 188.758 336.566 189.082 336.994 189.518C337.421 189.95 337.635 190.506 337.635 191.187C337.635 191.746 337.474 192.245 337.152 192.686C336.835 193.126 336.391 193.473 335.819 193.727C335.248 193.98 334.584 194.107 333.826 194.107C332.832 194.107 332.008 193.892 331.357 193.46C330.705 193.028 330.292 192.398 330.119 191.568L331.541 191.213C331.676 191.738 331.932 192.131 332.309 192.394C332.69 192.656 333.187 192.787 333.801 192.787C334.499 192.787 335.053 192.639 335.464 192.343C335.878 192.042 336.086 191.683 336.086 191.264C336.086 190.925 335.967 190.642 335.73 190.413C335.493 190.18 335.129 190.007 334.639 189.893L333.014 189.512C332.121 189.3 331.465 188.972 331.046 188.528C330.631 188.079 330.424 187.519 330.424 186.846C330.424 186.296 330.578 185.809 330.887 185.386C331.2 184.963 331.626 184.63 332.163 184.389C332.705 184.148 333.318 184.027 334.004 184.027C334.969 184.027 335.726 184.239 336.276 184.662C336.831 185.085 337.224 185.644 337.457 186.338ZM343.978 194.107C343.038 194.107 342.228 193.9 341.546 193.485C340.869 193.066 340.347 192.482 339.979 191.733C339.615 190.98 339.433 190.104 339.433 189.105C339.433 188.107 339.615 187.227 339.979 186.465C340.347 185.699 340.859 185.102 341.515 184.675C342.175 184.243 342.945 184.027 343.825 184.027C344.333 184.027 344.835 184.112 345.33 184.281C345.825 184.45 346.275 184.726 346.682 185.106C347.088 185.483 347.412 185.982 347.653 186.604C347.894 187.227 348.015 187.992 348.015 188.902V189.537H340.499V188.242H346.491C346.491 187.692 346.381 187.201 346.161 186.769C345.945 186.338 345.636 185.997 345.234 185.748C344.837 185.498 344.367 185.373 343.825 185.373C343.229 185.373 342.712 185.521 342.276 185.817C341.845 186.109 341.513 186.49 341.28 186.96C341.047 187.43 340.931 187.933 340.931 188.471V189.334C340.931 190.07 341.058 190.694 341.312 191.207C341.57 191.714 341.927 192.102 342.384 192.368C342.841 192.631 343.372 192.762 343.978 192.762C344.371 192.762 344.727 192.707 345.044 192.597C345.366 192.482 345.643 192.313 345.876 192.089C346.108 191.86 346.288 191.577 346.415 191.238L347.862 191.645C347.71 192.135 347.454 192.567 347.094 192.939C346.735 193.308 346.29 193.595 345.761 193.803C345.232 194.006 344.638 194.107 343.978 194.107ZM350.294 193.904V184.154H351.741V185.627H351.842C352.02 185.144 352.342 184.753 352.807 184.453C353.273 184.152 353.797 184.002 354.381 184.002C354.491 184.002 354.629 184.004 354.794 184.008C354.959 184.012 355.084 184.019 355.169 184.027V185.551C355.118 185.538 355.001 185.519 354.819 185.494C354.642 185.464 354.453 185.449 354.255 185.449C353.781 185.449 353.357 185.549 352.985 185.748C352.617 185.942 352.325 186.213 352.109 186.56C351.897 186.903 351.792 187.294 351.792 187.734V193.904H350.294ZM363.851 186.338L362.505 186.719C362.42 186.494 362.295 186.276 362.13 186.065C361.97 185.849 361.75 185.671 361.47 185.532C361.191 185.392 360.833 185.322 360.397 185.322C359.801 185.322 359.304 185.46 358.906 185.735C358.512 186.006 358.315 186.351 358.315 186.769C358.315 187.142 358.451 187.436 358.722 187.652C358.993 187.868 359.416 188.047 359.991 188.191L361.439 188.547C362.31 188.758 362.96 189.082 363.387 189.518C363.815 189.95 364.028 190.506 364.028 191.187C364.028 191.746 363.868 192.245 363.546 192.686C363.229 193.126 362.784 193.473 362.213 193.727C361.642 193.98 360.977 194.107 360.22 194.107C359.225 194.107 358.402 193.892 357.751 193.46C357.099 193.028 356.686 192.398 356.513 191.568L357.935 191.213C358.07 191.738 358.326 192.131 358.703 192.394C359.084 192.656 359.581 192.787 360.194 192.787C360.893 192.787 361.447 192.639 361.857 192.343C362.272 192.042 362.48 191.683 362.48 191.264C362.48 190.925 362.361 190.642 362.124 190.413C361.887 190.18 361.523 190.007 361.032 189.893L359.407 189.512C358.514 189.3 357.858 188.972 357.439 188.528C357.025 188.079 356.817 187.519 356.817 186.846C356.817 186.296 356.972 185.809 357.281 185.386C357.594 184.963 358.019 184.63 358.557 184.389C359.098 184.148 359.712 184.027 360.397 184.027C361.362 184.027 362.12 184.239 362.67 184.662C363.224 185.085 363.618 185.644 363.851 186.338Z" fill="black"/>
<path d="M256.871 242.604C254.652 242.604 252.676 242.222 250.942 241.459C249.218 240.687 247.856 239.627 246.856 238.28C245.865 236.923 245.355 235.358 245.326 233.585H251.804C251.843 234.327 252.086 234.981 252.532 235.546C252.988 236.101 253.592 236.531 254.345 236.838C255.097 237.146 255.944 237.299 256.885 237.299C257.866 237.299 258.733 237.126 259.486 236.779C260.238 236.432 260.828 235.952 261.254 235.338C261.68 234.724 261.893 234.015 261.893 233.213C261.893 232.401 261.665 231.683 261.209 231.059C260.763 230.425 260.12 229.929 259.278 229.573C258.446 229.216 257.455 229.038 256.306 229.038H253.468V224.313H256.306C257.277 224.313 258.133 224.144 258.876 223.808C259.629 223.471 260.214 223.005 260.63 222.411C261.046 221.807 261.254 221.103 261.254 220.301C261.254 219.538 261.07 218.87 260.704 218.295C260.347 217.711 259.842 217.255 259.188 216.928C258.545 216.601 257.792 216.438 256.93 216.438C256.058 216.438 255.261 216.596 254.538 216.913C253.815 217.22 253.235 217.661 252.799 218.236C252.363 218.81 252.131 219.484 252.101 220.257H245.935C245.964 218.503 246.465 216.958 247.435 215.621C248.406 214.283 249.714 213.238 251.358 212.486C253.012 211.723 254.88 211.342 256.96 211.342C259.06 211.342 260.897 211.723 262.472 212.486C264.047 213.248 265.27 214.279 266.142 215.576C267.024 216.864 267.46 218.31 267.45 219.915C267.46 221.619 266.93 223.04 265.86 224.179C264.8 225.318 263.418 226.041 261.714 226.348V226.586C263.953 226.873 265.657 227.651 266.826 228.919C268.004 230.177 268.589 231.752 268.579 233.644C268.589 235.377 268.089 236.918 267.078 238.265C266.078 239.612 264.696 240.672 262.933 241.445C261.17 242.217 259.149 242.604 256.871 242.604ZM272.743 236.838V231.772L285.447 211.758H289.815V218.771H287.23L279.221 231.445V231.683H297.274V236.838H272.743ZM287.349 242.188V235.293L287.468 233.05V211.758H293.5V242.188H287.349ZM307.928 238.027L307.764 239.662C307.635 240.969 307.388 242.272 307.021 243.569C306.665 244.877 306.288 246.061 305.892 247.12C305.506 248.18 305.194 249.012 304.956 249.617H300.855C301.004 249.032 301.207 248.215 301.464 247.165C301.722 246.125 301.964 244.956 302.192 243.658C302.42 242.361 302.564 241.038 302.623 239.691L302.697 238.027H307.928ZM324.524 242.604C322.424 242.604 320.552 242.217 318.908 241.445C317.273 240.672 315.976 239.607 315.015 238.25C314.054 236.893 313.554 235.338 313.514 233.585H319.755C319.824 234.763 320.319 235.719 321.241 236.452C322.162 237.185 323.256 237.552 324.524 237.552C325.535 237.552 326.426 237.329 327.199 236.883C327.981 236.427 328.591 235.798 329.026 234.996C329.472 234.184 329.695 233.253 329.695 232.203C329.695 231.133 329.467 230.192 329.012 229.38C328.566 228.567 327.947 227.933 327.154 227.478C326.362 227.022 325.456 226.789 324.435 226.779C323.544 226.779 322.677 226.963 321.835 227.329C321.003 227.696 320.354 228.196 319.889 228.83L314.168 227.805L315.609 211.758H334.212V217.017H320.914L320.126 224.64H320.305C320.84 223.887 321.647 223.263 322.727 222.768C323.806 222.272 325.015 222.025 326.352 222.025C328.184 222.025 329.819 222.456 331.255 223.317C332.692 224.179 333.826 225.363 334.658 226.869C335.49 228.364 335.901 230.088 335.891 232.039C335.901 234.09 335.425 235.912 334.465 237.507C333.514 239.092 332.181 240.34 330.468 241.251C328.764 242.153 326.783 242.604 324.524 242.604ZM351.626 242.604C349.407 242.604 347.431 242.222 345.698 241.459C343.974 240.687 342.612 239.627 341.611 238.28C340.621 236.923 340.111 235.358 340.081 233.585H346.559C346.599 234.327 346.842 234.981 347.287 235.546C347.743 236.101 348.347 236.531 349.1 236.838C349.853 237.146 350.7 237.299 351.641 237.299C352.622 237.299 353.488 237.126 354.241 236.779C354.994 236.432 355.583 235.952 356.009 235.338C356.435 234.724 356.648 234.015 356.648 233.213C356.648 232.401 356.42 231.683 355.965 231.059C355.519 230.425 354.875 229.929 354.033 229.573C353.201 229.216 352.21 229.038 351.061 229.038H348.223V224.313H351.061C352.032 224.313 352.889 224.144 353.632 223.808C354.385 223.471 354.969 223.005 355.385 222.411C355.801 221.807 356.009 221.103 356.009 220.301C356.009 219.538 355.826 218.87 355.459 218.295C355.103 217.711 354.598 217.255 353.944 216.928C353.3 216.601 352.547 216.438 351.685 216.438C350.814 216.438 350.016 216.596 349.293 216.913C348.57 217.22 347.991 217.661 347.555 218.236C347.119 218.81 346.886 219.484 346.857 220.257H340.69C340.72 218.503 341.22 216.958 342.191 215.621C343.162 214.283 344.469 213.238 346.114 212.486C347.768 211.723 349.635 211.342 351.715 211.342C353.815 211.342 355.653 211.723 357.228 212.486C358.803 213.248 360.026 214.279 360.898 215.576C361.779 216.864 362.215 218.31 362.205 219.915C362.215 221.619 361.685 223.04 360.615 224.179C359.555 225.318 358.174 226.041 356.47 226.348V226.586C358.709 226.873 360.412 227.651 361.581 228.919C362.76 230.177 363.344 231.752 363.334 233.644C363.344 235.377 362.844 236.918 361.834 238.265C360.833 239.612 359.451 240.672 357.688 241.445C355.925 242.217 353.904 242.604 351.626 242.604ZM367.498 236.838V231.772L380.202 211.758H384.571V218.771H381.985L373.977 231.445V231.683H392.03V236.838H367.498ZM382.104 242.188V235.293L382.223 233.05V211.758H388.256V242.188H382.104Z" fill="black"/>
</g>
</svg>
