<svg width="81" height="87" viewBox="0 0 81 87" fill="none" xmlns="http://www.w3.org/2000/svg">
<path d="M40.5234 0C45.7834 0.0203961 50.9882 1.07787 55.8389 3.1123C60.6896 5.14684 65.0921 8.11838 68.793 11.8564C72.5039 15.5855 75.4424 20.0103 77.4404 24.877C79.4385 29.7438 80.4567 34.9578 80.4365 40.2188V71.1553C80.4365 75.2578 78.8072 79.1928 75.9062 82.0938C73.0053 84.9946 69.0703 86.624 64.9678 86.624H43.3125C42.492 86.624 41.7042 86.298 41.124 85.7178C40.544 85.1376 40.2188 84.3507 40.2188 83.5303C40.2188 82.7099 40.544 81.9229 41.124 81.3428C41.7042 80.7626 42.492 80.4365 43.3125 80.4365H64.9678C67.4293 80.4365 69.7907 79.4583 71.5312 77.7178C73.2715 75.9773 74.249 73.6166 74.249 71.1553H64.9678C62.5065 71.1552 60.1457 70.1779 58.4053 68.4375C56.6647 66.6969 55.6865 64.3355 55.6865 61.874V46.4053C55.6866 43.9439 56.6648 41.5832 58.4053 39.8428C60.1458 38.1023 62.5064 37.1251 64.9678 37.125H74.1143C73.4284 29.2324 69.9909 21.8311 64.4033 16.2148C59.8317 11.625 54.0463 8.43311 47.7256 7.01367C41.405 5.59433 34.8108 6.00588 28.7158 8.2002C22.6206 10.3947 17.2769 14.2815 13.3115 19.4043C9.34624 24.5271 6.9228 30.6744 6.32617 37.125H15.4688C17.9301 37.125 20.2908 38.1023 22.0312 39.8428C23.7717 41.5832 24.7499 43.9439 24.75 46.4053V61.874C24.75 64.3355 23.7718 66.6969 22.0312 68.4375C20.2908 70.1778 17.9301 71.1552 15.4688 71.1553H9.28125C6.81993 71.1553 4.45926 70.1778 2.71875 68.4375C0.978197 66.6969 0 64.3355 0 61.874V40.2188C0 29.5522 4.2369 19.3217 11.7793 11.7793C19.3217 4.2369 29.5522 0 40.2188 0H40.5234ZM6.1875 43.3125V61.874C6.1875 62.6945 6.51362 63.4813 7.09375 64.0615C7.67393 64.6417 8.46075 64.9678 9.28125 64.9678H15.4688C16.2892 64.9677 17.0761 64.6417 17.6562 64.0615C18.2363 63.4814 18.5625 62.6944 18.5625 61.874V46.4053C18.5624 45.5849 18.2363 44.7979 17.6562 44.2178C17.0761 43.6377 16.2891 43.3125 15.4688 43.3125H6.1875ZM64.9678 43.3125C64.1474 43.3126 63.3604 43.6377 62.7803 44.2178C62.2002 44.7979 61.8741 45.5849 61.874 46.4053V61.874C61.874 62.6944 62.2003 63.4814 62.7803 64.0615C63.3604 64.6416 64.1474 64.9677 64.9678 64.9678H74.249V43.3125H64.9678Z" fill="#82FB8E"/>
</svg>
