<svg width="33" height="33" viewBox="0 0 33 33" fill="none" xmlns="http://www.w3.org/2000/svg">
<path d="M23.6748 0C25.9872 0.00257048 28.2038 0.922505 29.8389 2.55762C31.474 4.19273 32.3939 6.40929 32.3965 8.72168V23.6748C32.3939 25.9872 31.474 28.2038 29.8389 29.8389C28.2038 31.474 25.9872 32.3939 23.6748 32.3965H8.72168C6.40929 32.3939 4.19273 31.474 2.55762 29.8389C0.922505 28.2038 0.00257048 25.9872 0 23.6748V8.72168C0.00257048 6.40929 0.922504 4.19273 2.55762 2.55762C4.19273 0.922504 6.40929 0.00257048 8.72168 0H23.6748ZM8.72168 2.49219C7.06947 2.49228 5.4847 3.14811 4.31641 4.31641C3.14811 5.4847 2.49228 7.06947 2.49219 8.72168V23.6748C2.49228 25.327 3.14811 26.9118 4.31641 28.0801C5.4847 29.2484 7.06947 29.9042 8.72168 29.9043H23.6748C25.327 29.9042 26.9118 29.2484 28.0801 28.0801C29.2484 26.9118 29.9042 25.327 29.9043 23.6748V8.72168C29.9042 7.06947 29.2484 5.4847 28.0801 4.31641C26.9118 3.14811 25.327 2.49228 23.6748 2.49219H8.72168ZM16.1982 8.72168C18.1804 8.72374 20.0808 9.51245 21.4824 10.9141C22.884 12.3157 23.6727 14.2161 23.6748 16.1982C23.6748 17.6769 23.2356 19.1221 22.4141 20.3516C21.5926 21.5809 20.4256 22.5396 19.0596 23.1055C17.6935 23.6713 16.1895 23.8197 14.7393 23.5312C13.2892 23.2427 11.9576 22.5299 10.9121 21.4844C9.86663 20.4389 9.15375 19.1073 8.86523 17.6572C8.57676 16.207 8.72516 14.703 9.29102 13.3369C9.85688 11.9709 10.8155 10.8039 12.0449 9.98242C13.2744 9.16093 14.7196 8.72168 16.1982 8.72168ZM18.1055 11.5938C17.1947 11.2165 16.1924 11.1173 15.2256 11.3096C14.2588 11.5019 13.3708 11.9768 12.6738 12.6738C11.9768 13.3708 11.5019 14.2588 11.3096 15.2256C11.1173 16.1924 11.2165 17.1947 11.5938 18.1055C11.971 19.0162 12.6101 19.7951 13.4297 20.3428C14.2492 20.8902 15.2127 21.1826 16.1982 21.1826C17.5201 21.1826 18.788 20.6574 19.7227 19.7227C20.6574 18.788 21.1826 17.5201 21.1826 16.1982C21.1826 15.2127 20.8902 14.2492 20.3428 13.4297C19.7951 12.6101 19.0162 11.971 18.1055 11.5938ZM24.2979 6.23047C24.7934 6.23057 25.2687 6.42692 25.6191 6.77734C25.9696 7.12776 26.1669 7.60307 26.167 8.09863C26.167 8.4683 26.0569 8.83033 25.8516 9.1377C25.6462 9.44498 25.3542 9.68473 25.0127 9.82617C24.6712 9.96759 24.2951 10.0047 23.9326 9.93262C23.5701 9.86049 23.2369 9.68226 22.9756 9.4209C22.7142 9.15953 22.536 8.82638 22.4639 8.46387C22.3918 8.10136 22.4289 7.72528 22.5703 7.38379C22.7118 7.04233 22.9515 6.75029 23.2588 6.54492C23.5662 6.33955 23.9282 6.23047 24.2979 6.23047Z" fill="#1D5E5A"/>
</svg>
