<svg width="33" height="33" viewBox="0 0 33 33" fill="none" xmlns="http://www.w3.org/2000/svg">
<path d="M29.9043 0C30.5652 0 31.1996 0.262139 31.667 0.729492C32.1343 1.19685 32.3965 1.83125 32.3965 2.49219V29.9043C32.3965 30.5652 32.1343 31.1996 31.667 31.667C31.1996 32.1343 30.5652 32.3965 29.9043 32.3965H2.49219C1.83125 32.3965 1.19685 32.1343 0.729492 31.667C0.262139 31.1996 0 30.5652 0 29.9043V2.49219C0 1.83125 0.262139 1.19685 0.729492 0.729492C1.19685 0.262139 1.83125 0 2.49219 0H29.9043ZM2.49219 2.49219V29.9043H29.9043V2.49219H2.49219ZM9.96777 12.46C10.2982 12.46 10.6159 12.5915 10.8496 12.8252C11.0831 13.0588 11.2138 13.3758 11.2139 13.7061V23.6748C11.2138 24.0051 11.0831 24.3221 10.8496 24.5557C10.6159 24.7893 10.2982 24.9209 9.96777 24.9209C9.63743 24.9208 9.32052 24.7892 9.08691 24.5557C8.85332 24.3221 8.72178 24.0051 8.72168 23.6748V13.7061C8.72171 13.3757 8.85332 13.0588 9.08691 12.8252C9.32052 12.5916 9.63741 12.46 9.96777 12.46ZM19.0078 12.4707C20.0249 12.4153 21.0384 12.6374 21.9385 13.1143C22.8385 13.5911 23.5918 14.3042 24.1172 15.1768C24.6426 16.0494 24.9206 17.0488 24.9209 18.0674V23.6748C24.9208 24.0051 24.7893 24.3221 24.5557 24.5557C24.3221 24.7893 24.0051 24.9208 23.6748 24.9209C23.3443 24.9209 23.0266 24.7893 22.793 24.5557C22.5595 24.3221 22.4288 24.0051 22.4287 23.6748V18.0674C22.4287 17.2412 22.0998 16.4484 21.5156 15.8643C20.9315 15.2803 20.1394 14.9522 19.3135 14.9521C18.4873 14.9521 17.6945 15.2801 17.1104 15.8643C16.5262 16.4484 16.1982 17.2412 16.1982 18.0674V23.6748C16.1981 24.0051 16.0666 24.3221 15.833 24.5557C15.5994 24.7892 15.2825 24.9209 14.9521 24.9209C14.6218 24.9209 14.3049 24.7892 14.0713 24.5557C13.8377 24.3221 13.7062 24.0051 13.7061 23.6748V13.7061C13.7076 13.4009 13.8215 13.1069 14.0254 12.8799C14.2293 12.6529 14.5093 12.5088 14.8125 12.4746C15.1158 12.4404 15.4215 12.5184 15.6709 12.6943C15.9201 12.8703 16.0966 13.1316 16.166 13.4287C17.0087 12.8572 17.9911 12.5262 19.0078 12.4707ZM9.96777 7.47559C10.4635 7.47559 10.9395 7.67292 11.29 8.02344C11.6404 8.37386 11.8368 8.84922 11.8369 9.34473C11.8369 9.71439 11.7278 10.0764 11.5225 10.3838C11.3171 10.6911 11.0251 10.9308 10.6836 11.0723C10.3421 11.2137 9.96608 11.2499 9.60352 11.1777C9.24104 11.1056 8.90785 10.9283 8.64648 10.667C8.38515 10.4057 8.20691 10.0724 8.13477 9.70996C8.06265 9.34743 8.09978 8.97138 8.24121 8.62988C8.38267 8.28836 8.62233 7.99639 8.92969 7.79102C9.23697 7.5857 9.59822 7.47565 9.96777 7.47559Z" fill="#1D5E5A"/>
</svg>
