<svg width="80" height="77" viewBox="0 0 80 77" fill="none" xmlns="http://www.w3.org/2000/svg">
<path fill-rule="evenodd" clip-rule="evenodd" d="M23.7257 2.78915C30.65 -0.0200283 38.2489 -0.7268 45.5724 0.757901C52.8957 2.24262 59.619 5.85279 64.9025 11.1368C67.7895 14.0594 70.3555 16.8676 72.8702 19.7823V12.6534C72.8702 11.8132 73.2048 11.0073 73.7989 10.4132C74.3931 9.81916 75.199 9.48544 76.0392 9.48544C76.8793 9.48554 77.6853 9.81911 78.2794 10.4132C78.8734 11.0073 79.2071 11.8133 79.2071 12.6534V28.4942C79.2071 29.3344 78.8734 30.1403 78.2794 30.7345C77.6853 31.3285 76.8793 31.6621 76.0392 31.6622H60.1983C59.3582 31.6622 58.5522 31.3285 57.9581 30.7345C57.364 30.1403 57.0294 29.3345 57.0294 28.4942C57.0294 27.654 57.364 26.8481 57.9581 26.254C58.5522 25.66 59.3582 25.3263 60.1983 25.3263H69.3067C66.4594 21.9918 63.6357 18.8472 60.4122 15.5841C56.0072 11.1855 50.4035 8.18249 44.3019 6.94931C38.2001 5.71614 31.8701 6.30776 26.1026 8.65048C20.3354 10.9932 15.3856 14.9825 11.8722 20.1212C8.35873 25.26 6.43774 31.3206 6.34776 37.545C6.25781 43.7693 8.00304 49.8821 11.3663 55.1202C14.7297 60.3583 19.5618 64.4897 25.2589 66.9981C30.9562 69.5066 37.2666 70.281 43.4015 69.2247C49.5361 68.1685 55.2238 65.3289 59.754 61.0597C60.0566 60.7737 60.4129 60.5499 60.8019 60.4015C61.191 60.253 61.6063 60.1827 62.0226 60.1944C62.4387 60.2062 62.8487 60.2997 63.2286 60.4698C63.6086 60.64 63.9515 60.8831 64.2374 61.1856C64.5234 61.4883 64.7472 61.8445 64.8956 62.2335C65.044 62.6226 65.1144 63.0379 65.1026 63.4542C65.0908 63.8703 64.9974 64.2803 64.8273 64.6602C64.6571 65.0403 64.4131 65.383 64.1105 65.669C58.6757 70.7974 51.8498 74.2102 44.4864 75.4815C37.1232 76.7528 29.5487 75.8264 22.7091 72.8175C15.8693 69.8084 10.0675 64.85 6.0294 58.5626C1.99145 52.2753 -0.104508 44.9374 0.00401043 37.4659C0.112544 29.9943 2.42079 22.7203 6.63975 16.5528C10.8587 10.3855 16.8015 5.59833 23.7257 2.78915ZM38.0206 15.8214C38.8607 15.8214 39.6667 16.1551 40.2608 16.7491C40.855 17.3433 41.1886 18.1501 41.1886 18.9903V36.2052L55.4933 44.7862C56.2138 45.219 56.7331 45.9209 56.9366 46.7364C57.14 47.5517 57.0108 48.4145 56.5782 49.1349C56.1455 49.8553 55.4444 50.3747 54.629 50.5782C53.8135 50.7817 52.9501 50.6525 52.2296 50.2198L36.3888 40.7159C35.92 40.4342 35.5321 40.0357 35.2628 39.5597C34.9936 39.0837 34.8525 38.546 34.8526 37.9991V18.9903C34.8526 18.1501 35.1862 17.3433 35.7804 16.7491C36.3745 16.1551 37.1805 15.8214 38.0206 15.8214Z" fill="#82FB8E"/>
</svg>
