<svg width="35" height="32" viewBox="0 0 35 32" fill="none" xmlns="http://www.w3.org/2000/svg">
<path d="M23.377 16.6963C23.5398 16.6614 23.7084 16.6592 23.8721 16.6904C26.9326 17.1811 29.5592 18.0118 31.4688 19.0928C34.2955 20.6939 34.8887 22.4683 34.8887 23.6738C34.8881 28.5299 25.8999 31.1494 17.4443 31.1494C8.98876 31.1494 0.000589829 28.5299 0 23.6738C0 22.4683 0.593591 20.6939 3.42676 19.0928C5.33626 18.0119 7.962 17.1811 11.0225 16.6904C11.1844 16.6649 11.3504 16.6716 11.5098 16.71C11.6689 16.7483 11.8188 16.8179 11.9512 16.9141C12.0837 17.0105 12.1967 17.1327 12.2822 17.2725C12.3676 17.412 12.4246 17.567 12.4502 17.7285C12.4758 17.8904 12.469 18.0565 12.4307 18.2158C12.3923 18.3751 12.3229 18.5257 12.2266 18.6582C12.1302 18.7906 12.0088 18.9028 11.8691 18.9883C11.7294 19.0738 11.574 19.1307 11.4121 19.1562C8.68033 19.5955 6.27237 20.3446 4.64941 21.2666C3.27878 22.0376 2.49219 22.9169 2.49219 23.6738C2.49306 25.7547 8.18086 28.6572 17.4443 28.6572C26.7079 28.6572 32.3956 25.7547 32.3965 23.6738C32.3965 22.9169 31.6099 22.038 30.2393 21.2607C28.6101 20.3388 26.2083 19.5896 23.4766 19.1504C23.3115 19.1288 23.1524 19.0743 23.0088 18.9902C22.8649 18.9059 22.7393 18.7928 22.6396 18.6592C22.54 18.5256 22.4675 18.3738 22.4277 18.2119C22.388 18.05 22.3817 17.8814 22.4082 17.7168C22.4347 17.5522 22.4935 17.3942 22.582 17.2529C22.6704 17.1118 22.7865 16.9901 22.9229 16.8945C23.0593 16.7989 23.214 16.7312 23.377 16.6963ZM17.4443 0C18.9883 0 20.4778 0.572991 21.623 1.6084C22.7682 2.64371 23.4883 4.06761 23.6436 5.60352C23.7987 7.1396 23.3779 8.67932 22.4629 9.92285C21.5478 11.1664 20.2032 12.0252 18.6904 12.334V23.6738C18.6903 24.0041 18.5588 24.3211 18.3252 24.5547C18.0915 24.7882 17.7747 24.9189 17.4443 24.9189C17.114 24.9189 16.7971 24.7882 16.5635 24.5547C16.3299 24.3211 16.1984 24.0041 16.1982 23.6738V12.334C14.6857 12.0252 13.3418 11.1662 12.4268 9.92285C11.5117 8.67931 11.0909 7.13963 11.2461 5.60352C11.4014 4.06759 12.1214 2.6437 13.2666 1.6084C14.4118 0.573188 15.9006 3.02137e-05 17.4443 0ZM17.4443 2.49121C16.453 2.49124 15.5018 2.88494 14.8008 3.58594C14.1001 4.28684 13.7062 5.23742 13.7061 6.22852C13.7061 6.96777 13.9253 7.69098 14.3359 8.30566C14.7466 8.92034 15.3307 9.39968 16.0137 9.68262C16.6967 9.96554 17.4487 10.0397 18.1738 9.89551C18.8989 9.75127 19.5651 9.39485 20.0879 8.87207C20.6106 8.34931 20.9661 7.68307 21.1104 6.95801C21.2545 6.2331 21.1812 5.48171 20.8984 4.79883C20.6156 4.1159 20.1361 3.53183 19.5215 3.12109C18.9068 2.71035 18.1837 2.49121 17.4443 2.49121Z" fill="#003F35"/>
</svg>
