<svg width="123" height="79" viewBox="0 0 123 79" fill="none" xmlns="http://www.w3.org/2000/svg">
<path fill-rule="evenodd" clip-rule="evenodd" d="M39.8751 0C46.1515 1.00091e-05 52.2612 2.01986 57.3009 5.76074C62.3406 9.50176 66.0426 14.7657 67.8595 20.7734C69.6763 26.7811 69.5117 33.2142 67.3898 39.1211C65.2678 45.0278 61.3017 50.0951 56.0773 53.5732C65.5279 57.0565 73.5988 63.5021 79.086 71.9482C79.6332 72.814 79.8178 73.8606 79.5997 74.8613C79.3816 75.8618 78.7786 76.7364 77.921 77.2959C77.0632 77.8554 76.0194 78.0552 75.0157 77.8516C74.012 77.6478 73.1285 77.0568 72.5567 76.207C69.0173 70.7632 64.1742 66.2892 58.4669 63.1924C52.7595 60.0956 46.3685 58.4736 39.8751 58.4736C33.3817 58.4736 26.9907 60.0955 21.2833 63.1924C15.576 66.2892 10.733 70.7632 7.19347 76.207C6.91746 76.6437 6.55708 77.0211 6.1339 77.3174C5.71079 77.6136 5.23329 77.8236 4.72863 77.9336C4.22386 78.0436 3.70158 78.0513 3.19347 77.958C2.68559 77.8647 2.2012 77.6717 1.76867 77.3896C1.33596 77.1074 0.963201 76.7418 0.672962 76.3145C0.382862 75.8873 0.181045 75.4064 0.0782354 74.9004C-0.0245494 74.3941 -0.0262665 73.872 0.0743291 73.3652C0.174928 72.8585 0.375782 72.3769 0.664173 71.9482C6.15139 63.5021 14.2223 57.0565 23.673 53.5732C18.4485 50.0951 14.4825 45.0278 12.3605 39.1211C10.2385 33.2143 10.073 26.7811 11.8898 20.7734C13.7067 14.7657 17.4096 9.50176 22.4493 5.76074C27.489 2.01987 33.5987 0 39.8751 0ZM71.8985 2.09766C78.6106 -0.579184 86.0767 -0.675615 92.8556 1.82715C99.6344 4.32993 105.246 9.25422 108.609 15.6504C111.971 22.0467 112.845 29.4619 111.063 36.4648C109.28 43.4676 104.968 49.5624 98.9571 53.5732C108.408 57.0565 116.48 63.502 121.967 71.9482C122.531 72.8141 122.729 73.8693 122.516 74.8809C122.303 75.8922 121.697 76.778 120.831 77.3428C119.965 77.9072 118.911 78.1044 117.9 77.8916C116.888 77.6787 116.002 77.0727 115.438 76.207C111.902 70.7599 107.059 66.284 101.351 63.1885C95.6422 60.0929 89.2488 58.4757 82.755 58.4844C81.7213 58.4843 80.7301 58.0737 79.9991 57.3428C79.2682 56.6118 78.8576 55.6206 78.8575 54.5869C78.8575 53.553 79.2681 52.5611 79.9991 51.8301C80.7301 51.0992 81.7213 50.6886 82.755 50.6885C85.9123 50.6855 89.0305 49.9852 91.8858 48.6377C94.7412 47.2901 97.2642 45.3281 99.2735 42.8926C101.283 40.4572 102.729 37.6081 103.51 34.5488C104.29 31.4896 104.386 28.2956 103.789 25.1953C103.192 22.0949 101.917 19.1641 100.057 16.6133C98.196 14.0624 95.7945 11.9538 93.0245 10.4385C90.2546 8.92329 87.1838 8.03872 84.0323 7.84766C80.8808 7.65664 77.7258 8.16349 74.7931 9.33301C74.3149 9.5397 73.8003 9.64892 73.2794 9.65332C72.7587 9.65771 72.2423 9.55783 71.7608 9.35938C71.2793 9.1608 70.8421 8.86732 70.4757 8.49707C70.1093 8.12678 69.8205 7.68678 69.6271 7.20312C69.4336 6.71944 69.3388 6.20152 69.3487 5.68066C69.3587 5.16005 69.4731 4.64667 69.6847 4.1709C69.8964 3.695 70.2019 3.26621 70.5821 2.91016C70.9623 2.55418 71.4099 2.27775 71.8985 2.09766ZM44.0577 8.21973C39.8988 7.39251 35.5877 7.81771 31.67 9.44043C27.7525 11.0632 24.4038 13.8112 22.048 17.3369C19.6922 20.8626 18.4347 25.0078 18.4347 29.248C18.4411 34.9323 20.7024 40.382 24.7218 44.4014C28.7412 48.4208 34.1908 50.682 39.8751 50.6885C44.1155 50.6885 48.2605 49.4309 51.7862 47.0752C55.3121 44.7193 58.0609 41.3708 59.6837 37.4531C61.3064 33.5355 61.7307 29.2243 60.9034 25.0654C60.0761 20.9065 58.0337 17.0863 55.0353 14.0879C52.0368 11.0895 48.2166 9.04698 44.0577 8.21973Z" fill="#82FB8E"/>
</svg>
