<svg width="32" height="32" viewBox="0 0 32 32" fill="none" xmlns="http://www.w3.org/2000/svg">
<path fill-rule="evenodd" clip-rule="evenodd" d="M7.61915 0.0184317C8.15278 -0.0467257 8.69367 0.0618187 9.16017 0.328979C9.6267 0.596211 9.99423 1.00754 10.208 1.50085L13.4981 8.8446V8.86316C13.6617 9.24079 13.7289 9.65323 13.6944 10.0634C13.6598 10.4735 13.5243 10.8688 13.2998 11.2137C13.2718 11.2558 13.2421 11.295 13.211 11.3339L9.96876 15.1776C11.1354 17.5481 13.615 20.006 16.0166 21.1757L19.8076 17.9501C19.8447 17.9189 19.8834 17.8899 19.9238 17.8632C20.2685 17.6333 20.6656 17.493 21.0781 17.455C21.4906 17.4169 21.9063 17.4815 22.2871 17.6444L22.3067 17.6542L29.6445 20.9423C30.1387 21.1553 30.5512 21.5225 30.8193 21.9891C31.0874 22.4557 31.1966 22.997 31.1318 23.5311C30.854 25.6415 29.8174 27.5783 28.2158 28.9803C26.6142 30.3824 24.5573 31.1541 22.4287 31.1503C10.0619 31.1503 1.40325e-05 21.0884 1.40325e-05 8.72156C-0.00379452 6.59286 0.767772 4.53512 2.16994 2.93347C3.57198 1.33216 5.50899 0.29621 7.61915 0.0184317ZM7.94337 2.49597C6.43303 2.69301 5.04642 3.43407 4.04298 4.57996C3.03952 5.72591 2.48813 7.19836 2.4922 8.72156C2.49797 14.0073 4.60033 19.0748 8.3379 22.8124C12.0755 26.5499 17.143 28.6523 22.4287 28.6581C23.951 28.6633 25.4227 28.1135 26.5693 27.1122C27.6443 26.1734 28.3648 24.8982 28.6152 23.4989L28.6592 23.2196C28.6592 23.2196 28.6478 23.2196 28.6416 23.2196L21.3213 19.9403L17.5283 23.1659C17.4915 23.1971 17.4531 23.2268 17.4131 23.2538C17.0546 23.4929 16.6398 23.6348 16.21 23.6659C15.7801 23.697 15.3492 23.6156 14.96 23.4305C12.0428 22.0209 9.13472 19.1349 7.72365 16.2489C7.5369 15.8625 7.4532 15.434 7.48048 15.0057C7.50782 14.5774 7.64557 14.1632 7.8799 13.8036C7.90627 13.7615 7.93616 13.721 7.96876 13.6835L11.2139 9.83484L7.94337 2.51453C7.94279 2.5084 7.94277 2.5021 7.94337 2.49597ZM18.0674 6.39636C18.3534 6.23102 18.6935 6.18618 19.0127 6.27136C21.997 7.06882 24.0815 9.15332 24.8789 12.1376C24.9212 12.2956 24.9315 12.4607 24.9102 12.6229C24.8888 12.785 24.8357 12.9413 24.7539 13.0829C24.6721 13.2246 24.5635 13.3495 24.4336 13.4491C24.3037 13.5487 24.1552 13.6216 23.9971 13.6639C23.8919 13.6916 23.7836 13.7056 23.6748 13.7059C23.4002 13.7059 23.1328 13.6154 22.9151 13.4481C22.6974 13.2808 22.5414 13.0454 22.4707 12.7802C21.8975 10.6326 20.5176 9.25278 18.3701 8.67956C18.0508 8.59426 17.7778 8.38559 17.6123 8.09949C17.4469 7.81347 17.4021 7.47339 17.4873 7.15417C17.5726 6.83486 17.7813 6.56183 18.0674 6.39636ZM19.7735 1.25574C19.9356 1.23438 20.1008 1.24466 20.2588 1.28699C22.5687 1.88967 24.6762 3.09796 26.3643 4.78601C28.0523 6.47405 29.2596 8.58156 29.8623 10.8915C29.9047 11.0496 29.9159 11.2146 29.8945 11.3768C29.8732 11.5389 29.82 11.6952 29.7383 11.8368C29.6564 11.9785 29.5469 12.1034 29.417 12.203C29.2873 12.3024 29.1393 12.3756 28.9815 12.4178C28.8763 12.4455 28.7679 12.4595 28.6592 12.4598C28.3846 12.4598 28.1171 12.3693 27.8994 12.202C27.6817 12.0347 27.5258 11.7994 27.4551 11.5341C26.9635 9.64853 25.9775 7.9285 24.5996 6.55066C23.2217 5.17272 21.5009 4.18673 19.6152 3.69519C19.4572 3.65304 19.3087 3.57978 19.1787 3.48035C19.0488 3.38085 18.9394 3.25675 18.8574 3.11511C18.7755 2.97341 18.7226 2.81645 18.7012 2.65417C18.6798 2.49193 18.6901 2.32691 18.7324 2.16882C18.7747 2.01074 18.8477 1.86216 18.9473 1.7323C19.0469 1.60247 19.1718 1.49382 19.3135 1.41199C19.4551 1.33024 19.6113 1.27711 19.7735 1.25574Z" fill="#003F35"/>
</svg>
