<svg width="97" height="97" viewBox="0 0 97 97" fill="none" xmlns="http://www.w3.org/2000/svg">
<path fill-rule="evenodd" clip-rule="evenodd" d="M39.8641 0.0105417C50.3587 -0.227974 60.5414 3.58877 68.2937 10.6668C76.0461 17.745 80.7711 27.5401 81.4861 38.0135C82.2011 48.4867 78.851 58.8321 72.1326 66.8982L95.3123 90.075C95.6564 90.4191 95.9298 90.8275 96.116 91.2771C96.3022 91.7267 96.3982 92.2086 96.3982 92.6951C96.3982 93.1817 96.3022 93.6635 96.116 94.1131C95.9298 94.5627 95.6564 94.9711 95.3123 95.3152C94.9682 95.6592 94.5596 95.9327 94.1101 96.1189C93.6607 96.305 93.1786 96.4012 92.6922 96.4012C92.2057 96.4011 91.7237 96.3051 91.2742 96.1189C90.8246 95.9327 90.4162 95.6593 90.0721 95.3152L66.8973 72.1346C58.8314 78.8532 48.4855 82.2041 38.0125 81.4891C27.5394 80.774 17.7447 76.0483 10.6668 68.2957C3.58895 60.5431 -0.227933 50.36 0.0105375 39.865C0.249048 29.37 4.52522 19.3711 11.948 11.948C19.3709 4.52499 29.3693 0.249064 39.8641 0.0105417ZM47.3455 8.15019C40.8798 6.86404 34.1773 7.52386 28.0867 10.0467C21.9961 12.5696 16.7903 16.8425 13.1277 22.324C9.46513 27.8057 7.50956 34.2508 7.50956 40.8435C7.51948 49.6809 11.0352 58.1532 17.284 64.4021C23.5329 70.6512 32.0053 74.1668 40.8426 74.1766C47.435 74.1765 53.8797 72.221 59.3611 68.5584C64.8423 64.8957 69.1147 59.6901 71.6375 53.5994C74.1603 47.5085 74.8201 40.8057 73.534 34.3396C72.2478 27.8739 69.0733 21.9348 64.4119 17.2732C59.7504 12.6116 53.8112 9.43641 47.3455 8.15019Z" fill="#82FB8E"/>
</svg>
