<svg width="76" height="76" viewBox="0 0 76 76" fill="none" xmlns="http://www.w3.org/2000/svg">
<path fill-rule="evenodd" clip-rule="evenodd" d="M36.5684 0.0118141C45.8384 -0.220798 54.8663 2.98856 61.9092 9.0206L70.0772 0.848728C70.618 0.307844 71.3523 0.00400164 72.1172 0.00400164C72.882 0.00411174 73.6155 0.307942 74.1563 0.848728C74.697 1.38957 75.001 2.12298 75.001 2.88779C75.001 3.65259 74.697 4.386 74.1563 4.92685L39.5654 39.5177C39.0246 40.0585 38.2912 40.3623 37.5264 40.3624C36.7615 40.3624 36.0272 40.0586 35.4863 39.5177C34.9457 38.9768 34.6416 38.2434 34.6416 37.4786C34.6416 36.7139 34.9457 35.9804 35.4863 35.4395L45.4746 25.4513C42.7678 23.6611 39.5363 22.8364 36.3027 23.1114C33.0692 23.3865 30.0228 24.7452 27.6572 26.9669C25.2918 29.1886 23.7447 32.1437 23.2676 35.3536C22.7906 38.5637 23.4111 41.8417 25.0283 44.6554C26.6455 47.4688 29.1651 49.654 32.1787 50.8575C35.1926 52.0611 38.5253 52.212 41.6358 51.2862C44.7461 50.3605 47.4531 48.4124 49.3184 45.7569C51.1837 43.1012 52.0985 39.8935 51.9141 36.6534C51.8928 36.2749 51.9461 35.896 52.0713 35.5382C52.1965 35.1803 52.391 34.8502 52.6436 34.5675C52.8961 34.2849 53.2015 34.0542 53.543 33.8897C53.8845 33.7253 54.2554 33.6298 54.6338 33.6085C55.3982 33.5655 56.1488 33.828 56.7197 34.338C57.0025 34.5906 57.2329 34.8968 57.3975 35.2384C57.562 35.5799 57.6574 35.9507 57.6787 36.3292C57.9415 40.9152 56.6318 45.4537 53.9658 49.1944C51.2999 52.9351 47.4373 55.6543 43.0166 56.9024C38.5958 58.1505 33.881 57.8529 29.6524 56.0587C25.4237 54.2644 21.9341 51.0807 19.7598 47.0343C17.5855 42.9879 16.8567 38.3204 17.6943 33.8038C18.532 29.2874 20.8857 25.192 24.3662 22.1944C27.8468 19.1968 32.2462 17.4762 36.8369 17.3175C41.4278 17.1588 45.936 18.5711 49.6152 21.3214L57.8125 13.1241C51.8053 8.13657 44.1663 5.54488 36.3643 5.8458C28.5625 6.14681 21.1471 9.31975 15.542 14.755C9.93679 20.1904 6.53684 27.505 5.99611 35.294C5.4554 43.0831 7.81187 50.7974 12.6123 56.9552C17.4128 63.1129 24.3193 67.2803 32.0049 68.6563C39.6904 70.0323 47.6133 68.5199 54.252 64.4103C60.8906 60.3006 65.7773 53.8834 67.9727 46.3907C70.168 38.898 69.5175 30.858 66.1465 23.8155C65.8168 23.1256 65.7746 22.3324 66.0293 21.6114C66.2841 20.8905 66.815 20.3005 67.5049 19.9708C68.1947 19.6412 68.9871 19.599 69.708 19.8536C70.429 20.1084 71.0199 20.6392 71.3496 21.3292C75.3495 29.695 76.1083 39.246 73.4805 48.1388C70.8526 57.0316 65.0239 64.6355 57.1192 69.4835C49.2145 74.3314 39.7945 76.0798 30.6768 74.3907C21.559 72.7015 13.3895 67.6949 7.74611 60.337C2.10268 52.979 -0.615061 43.791 0.117201 34.547C0.849479 25.3031 4.97968 16.658 11.711 10.2804C18.4424 3.90265 27.2983 0.244441 36.5684 0.0118141Z" fill="#6DB991"/>
</svg>
