<svg width="34" height="30" viewBox="0 0 34 30" fill="none" xmlns="http://www.w3.org/2000/svg">
<path fill-rule="evenodd" clip-rule="evenodd" d="M21.1962 0.000624537C22.5038 0.0135215 23.7861 0.364242 24.9179 1.01918C26.0497 1.67418 26.9935 2.6106 27.6562 3.73793H32.3954C32.6419 3.73798 32.8829 3.81191 33.0878 3.94887C33.2925 4.08579 33.4526 4.27992 33.5468 4.50746C33.6413 4.73512 33.6661 4.98641 33.6181 5.22816C33.5701 5.46969 33.4513 5.69162 33.2773 5.86586L28.6181 10.5231C27.6788 21.4289 18.4816 29.9049 7.47455 29.9049C5.2131 29.9049 3.34852 29.5466 1.93744 28.8395C0.795957 28.2679 0.328656 27.6555 0.21185 27.4811C0.107807 27.325 0.0403934 27.1474 0.0145842 26.9616C-0.011216 26.7757 0.00488873 26.5864 0.0624358 26.4079C0.120098 26.2292 0.217933 26.0651 0.347592 25.9293C0.477145 25.7937 0.635844 25.6895 0.811459 25.6237C0.851954 25.6081 4.58678 24.1732 6.95892 21.443C5.64346 20.3615 4.49565 19.0909 3.55169 17.6735C1.61567 14.806 -0.546364 9.82497 0.124936 2.38148C0.146099 2.14504 0.233861 1.91907 0.378842 1.73109C0.523854 1.54313 0.719959 1.40046 0.943295 1.31996C1.16666 1.23947 1.40896 1.22473 1.64056 1.27699C1.87195 1.32929 2.08387 1.44643 2.25091 1.61488C2.30543 1.6694 7.43437 6.77033 13.705 8.42445V7.47621C13.7027 6.48181 13.8994 5.49709 14.2831 4.57973C14.667 3.66228 15.2306 2.83098 15.9404 2.13441C16.63 1.44626 17.4498 0.902234 18.3525 0.535781C19.2551 0.169386 20.2222 -0.0120884 21.1962 0.000624537ZM21.166 2.49184C20.522 2.48348 19.8825 2.60452 19.2861 2.8473C18.6895 3.09021 18.1474 3.45098 17.6923 3.90687C17.2177 4.37212 16.8407 4.92765 16.5839 5.54066C16.3272 6.15362 16.1958 6.81168 16.1972 7.47621V9.9684C16.1968 10.1493 16.1564 10.3279 16.08 10.4918C16.0037 10.6556 15.8929 10.801 15.7548 10.9176C15.6165 11.0343 15.4537 11.1199 15.2792 11.1676C15.1049 11.2152 14.9223 11.224 14.7441 11.194C9.53878 10.3186 4.98224 7.17777 2.49017 5.15297C2.50436 16.0015 9.26928 20.0623 9.34369 20.1051C9.49116 20.1903 9.62011 20.3043 9.72162 20.4411C9.82312 20.5778 9.89471 20.7342 9.93353 20.9C9.97232 21.0657 9.97736 21.2375 9.9472 21.4049C9.91695 21.5725 9.85209 21.7329 9.75775 21.8746C8.15039 24.2854 5.65095 25.9598 3.85833 26.9332C4.67133 27.1949 5.83002 27.4127 7.47455 27.4127C17.3306 27.4127 25.5416 19.7157 26.1757 9.8893C26.195 9.58755 26.3236 9.30264 26.537 9.08852L29.3847 6.23012H26.8925C26.6503 6.23016 26.4136 6.15947 26.2109 6.02699C26.0081 5.89449 25.8481 5.70588 25.7509 5.48402C24.9799 3.71958 23.1376 2.51691 21.166 2.49184Z" fill="#1D5E5A"/>
</svg>
