<svg width="29" height="29" viewBox="0 0 29 29" fill="none" xmlns="http://www.w3.org/2000/svg">
<path fill-rule="evenodd" clip-rule="evenodd" d="M10.876 0.427095C12.9912 -0.100891 15.1995 -0.139774 17.3321 0.312837C19.4644 0.765477 21.4654 1.69795 23.1836 3.0394C24.902 4.38097 26.2926 6.09601 27.2491 8.05503C28.2055 10.0141 28.7032 12.166 28.7041 14.346C28.7046 16.8235 28.0636 19.259 26.8438 21.4154C25.6237 23.572 23.8654 25.3759 21.7413 26.6517C19.6171 27.9275 17.1987 28.6318 14.7217 28.6957C12.2448 28.7595 9.79348 28.1815 7.60649 27.0169L2.90824 28.5833C2.51921 28.7131 2.10133 28.7313 1.70219 28.6371C1.30306 28.5429 0.937485 28.3401 0.647502 28.0501C0.357531 27.7602 0.154779 27.3946 0.060588 26.9955C-0.0335486 26.5965 -0.0152766 26.1792 0.114299 25.7904L1.68071 21.0912C0.65697 19.1664 0.0852808 17.0336 0.00883022 14.8548C-0.0676123 12.6762 0.353074 10.5086 1.2393 8.51694C2.12559 6.52521 3.45442 4.76142 5.12406 3.35971C6.79372 1.95803 8.76091 0.955095 10.876 0.427095ZM11.0401 5.51401C9.57614 5.51401 8.17194 6.09509 7.13676 7.13022C6.10161 8.16537 5.52059 9.56962 5.52055 11.0335C5.5242 14.2532 6.80448 17.3399 9.0811 19.6165C11.3577 21.8932 14.4445 23.1744 17.6641 23.1781C18.389 23.1781 19.1067 23.0346 19.7764 22.7572C20.4461 22.4798 21.0549 22.0734 21.5674 21.5609C22.08 21.0483 22.4863 20.4395 22.7637 19.7699C23.0411 19.1002 23.1836 18.3824 23.1836 17.6576C23.1838 17.4525 23.1273 17.251 23.0196 17.0765C22.9119 16.9021 22.7576 16.761 22.5743 16.6693L18.1582 14.4613C17.9844 14.3747 17.7906 14.3359 17.5967 14.348C17.4029 14.3601 17.2154 14.423 17.0538 14.5306L15.0264 15.8832C14.0959 15.3716 13.3299 14.6056 12.8184 13.6751L14.1709 11.6478C14.2785 11.4861 14.3414 11.2987 14.3536 11.1048C14.3656 10.9112 14.3267 10.7179 14.2403 10.5443L12.0323 6.12827C11.9408 5.94349 11.7994 5.78758 11.6241 5.67905C11.4487 5.57052 11.2463 5.51348 11.0401 5.51401ZM11.9747 10.9593L10.626 12.9662C10.5254 13.1172 10.4629 13.2905 10.4454 13.471C10.4278 13.6518 10.4557 13.8346 10.5254 14.0023C11.3153 15.8793 12.8086 17.3725 14.6856 18.1624C14.8538 18.2353 15.0381 18.2653 15.2207 18.2494C15.4033 18.2334 15.5794 18.1724 15.7325 18.0716L17.7442 16.723L20.918 18.308C20.7675 19.0596 20.3609 19.7357 19.7676 20.221C19.1742 20.7065 18.4307 20.9715 17.6641 20.9701C15.0298 20.9671 12.5044 19.9187 10.6416 18.056C8.77895 16.1933 7.73148 13.6678 7.72856 11.0335C7.72838 10.2679 7.99331 9.52614 8.47856 8.93393C8.96381 8.34177 9.63902 7.93584 10.3897 7.78549L11.9747 10.9593Z" fill="white"/>
</svg>
