<svg width="28" height="30" viewBox="0 0 28 30" fill="none" xmlns="http://www.w3.org/2000/svg">
<path fill-rule="evenodd" clip-rule="evenodd" d="M8.73252 3.0523e-08C8.94221 7.09986e-05 9.14837 0.0532974 9.33213 0.154297C9.51591 0.255308 9.67182 0.401118 9.78428 0.578125L16.0899 10.4883L25.255 0.408203C25.4784 0.168215 25.7877 0.0254059 26.1153 0.0117188C26.4428 -0.00183782 26.7624 0.114551 27.005 0.334961C27.2476 0.555474 27.3936 0.86304 27.4112 1.19043C27.4288 1.51774 27.3163 1.83878 27.0987 2.08398L17.4776 12.667L27.2286 27.9902C27.3483 28.1786 27.4149 28.3961 27.422 28.6191C27.4291 28.8422 27.3761 29.0632 27.2687 29.2588C27.1612 29.4543 27.0036 29.6178 26.8116 29.7314C26.6196 29.8451 26.4 29.9052 26.1769 29.9053H18.7003C18.4916 29.906 18.2862 29.8534 18.1026 29.7539C17.919 29.6543 17.7629 29.5104 17.6495 29.335L11.3429 19.4238L2.17881 29.5049C2.06939 29.6282 1.93572 29.7282 1.78721 29.7998C1.63889 29.8713 1.47798 29.913 1.31358 29.9219C1.14893 29.9307 0.983566 29.9069 0.828224 29.8516C0.672939 29.7963 0.530291 29.7105 0.408302 29.5996C0.286283 29.4887 0.187136 29.3544 0.117287 29.2051C0.0475539 29.0558 0.00795277 28.8941 0.00107592 28.7295C-0.00578271 28.5649 0.0202131 28.4006 0.0772478 28.2461C0.134398 28.0914 0.221733 27.9488 0.334084 27.8281L9.95518 17.2373L0.205177 1.91602C0.0851333 1.72768 0.0172247 1.51032 0.00986498 1.28711C0.00254248 1.06382 0.0557024 0.842342 0.163185 0.646484C0.270641 0.450679 0.428977 0.287574 0.621193 0.173828C0.813384 0.060133 1.03266 -4.94795e-05 1.25596 3.0523e-08H8.73252ZM3.52549 2.49219L19.3849 27.4131H23.9073L8.04209 2.49219H3.52549Z" fill="#1D5E5A"/>
</svg>
